<?xml version="1.0" encoding="utf-8"?>
<!-- Generator: Adobe Illustrator 27.8.0, SVG Export Plug-In . SVG Version: 6.00 Build 0)  -->
<svg version="1.1"
	 id="svg1431" xmlns:inkscape="http://www.inkscape.org/namespaces/inkscape" xmlns:sodipodi="http://sodipodi.sourceforge.net/DTD/sodipodi-0.dtd" xmlns:svg="http://www.w3.org/2000/svg"
	 xmlns="http://www.w3.org/2000/svg" xmlns:xlink="http://www.w3.org/1999/xlink" x="0px" y="0px" viewBox="0 0 250 250"
	 style="enable-background:new 0 0 250 250;" xml:space="preserve">
<style type="text/css">
	.st0{fill:#A8BAA9;}
</style>
<sodipodi:namedview  bordercolor="#ffffff" borderopacity="1" id="namedview1433" inkscape:current-layer="g1441" inkscape:cx="511.75545" inkscape:cy="335.16378" inkscape:deskcolor="#505050" inkscape:pagecheckerboard="1" inkscape:pageopacity="0" inkscape:showpageshadow="0" inkscape:window-height="737" inkscape:window-maximized="1" inkscape:window-width="1360" inkscape:window-x="0" inkscape:window-y="0" inkscape:zoom="0.69369071" pagecolor="#505050" showgrid="false">
	</sodipodi:namedview>
<g id="g1439" transform="matrix(1.3333333,0,0,-1.3333333,-54.555237,460.53868)" inkscape:groupmode="layer" inkscape:label="Page 1">
	<g id="g1441" transform="scale(0.1)">
		<g id="g5542" transform="matrix(4.7101974,0,0,4.7101974,-1518.0801,-12815.17)">
			<path id="path1619" class="st0" d="M740.5,3207.5c-4.4,6-12.4,10-20,10.6c4.4,7.3,3.8,17.8-1.2,24.8c-4.1,5.8-11.6,9.6-18.9,10.4
				c3.8,7.5,2.5,18.2-2.3,24.9c-4.3,6-13.7,10.4-20.9,10.4c-0.6,0-1.2,0-1.8-0.1l44.7,44.7c6.2,6.2,8.5,15.8,4.5,23.5
				c-3.9,7.5-10.9,11.2-18,11.2c-5.1,0-10.2-1.9-14.1-5.9L579.2,3249c-7.8,7.8-7.8,20.5,0,28.3l12.8,12.8c2.7,2.7,2.7,7.1,0,9.8
				l-4.3,4.3c-5.3,5.3-12.2,7.9-19.1,7.9s-13.8-2.6-19.1-7.9l-34.9-34.9c-6.1-6.1-9.3-14.6-8.7-23.2l2.3-35.7
				c0.5-7.3,3.6-14.1,8.7-19.2l78.2-78.3c5.6-5.6,13.3-8.8,21.2-8.8h31.7c8,0,15.6,3.2,21.2,8.8l68.2,68.2
				C744.6,3188.1,746.3,3199.5,740.5,3207.5"/>
			<path id="path1621" class="st0" d="M495,3177.6c-2,1.9-5.1,1.9-7.1,0l-14.1-14.1c-2-2-2-5.1,0-7.1l99-99c2-1.9,5.1-1.9,7.1,0
				l14.1,14.1c2,1.9,2,5.1,0,7.1L495,3177.6z M688.5,3454l-75-75l-35,35l-30-30l65-65l105,105L688.5,3454"/>
		</g>
	</g>
</g>
</svg>
