<?xml version="1.0" encoding="utf-8"?>
<!-- Generator: Adobe Illustrator 27.8.0, SVG Export Plug-In . SVG Version: 6.00 Build 0)  -->
<svg version="1.1"
	 id="svg1431" xmlns:svg="http://www.w3.org/2000/svg" xmlns:sodipodi="http://sodipodi.sourceforge.net/DTD/sodipodi-0.dtd" xmlns:inkscape="http://www.inkscape.org/namespaces/inkscape" sodipodi:docname="215.eps"
	 xmlns="http://www.w3.org/2000/svg" xmlns:xlink="http://www.w3.org/1999/xlink" x="0px" y="0px" viewBox="0 0 250 250"
	 style="enable-background:new 0 0 250 250;" xml:space="preserve">
<style type="text/css">
	.st0{fill:#A8BAA9;}
</style>
<sodipodi:namedview  bordercolor="#ffffff" borderopacity="1" id="namedview1433" inkscape:current-layer="g1441" inkscape:cx="511.75545" inkscape:cy="335.16378" inkscape:deskcolor="#505050" inkscape:pagecheckerboard="1" inkscape:pageopacity="0" inkscape:showpageshadow="0" inkscape:window-height="737" inkscape:window-maximized="1" inkscape:window-width="1360" inkscape:window-x="0" inkscape:window-y="0" inkscape:zoom="0.69369071" pagecolor="#505050" showgrid="false">
	</sodipodi:namedview>
<g id="g1439" transform="matrix(1.3333333,0,0,-1.3333333,-136.73332,367.34523)" inkscape:groupmode="layer" inkscape:label="Page 1">
	<g id="g1441" transform="scale(0.1)">
		
			<g id="g1772" transform="matrix(5.2057306,0,0,5.2057306,-4312.9768,-11587.167)" inkscape:export-filename="../584e8f0a/professionalism.svg" inkscape:export-xdpi="96" inkscape:export-ydpi="96">
			<path id="path1591" class="st0" d="M1122.6,2534.7c-0.6,1.9-2.3,3.1-4.3,3.1h-22.1c-39.1,0-70.7-31.7-70.7-70.7v-31.4
				c0-5.8,4.7-10.5,10.5-10.5h116.1c3.1,0,5.2,3,4.3,5.9L1122.6,2534.7z M1182.6,2737.6c-47.9,0-86.7-38.8-86.7-86.7
				s38.8-86.7,86.7-86.7c47.9,0,86.7,38.8,86.7,86.7S1230.5,2737.6,1182.6,2737.6"/>
			<path id="path1593" class="st0" d="M1182.6,2535.4c-7.5,0-13.5-6.1-13.5-13.5v-72.2c0-7.5,6.1-13.5,13.5-13.5s13.5,6.1,13.5,13.5
				v72.2C1196.1,2529.3,1190.1,2535.4,1182.6,2535.4z M1363.6,2523c-3.9,9.3,4.3,26.9-2.7,33.9c-7,7-24.6-1.1-33.9,2.7
				c-9,3.7-15.6,22.1-25.9,22.1c-10.3,0-16.9-18.3-25.9-22.1c-9.3-3.9-26.9,4.3-33.9-2.7c-7-7,1.1-24.6-2.7-33.9
				c-3.7-9-22.1-15.6-22.1-25.9s18.3-16.9,22.1-25.9c3.9-9.3-4.3-26.9,2.7-33.9c7-7,24.6,1.1,33.9-2.7c9-3.7,15.6-22.1,25.9-22.1
				c10.3,0,16.9,18.3,25.9,22.1c9.3,3.9,26.9-4.3,33.9,2.7c7,7-1.1,24.6,2.7,33.9c3.7,9,22.1,15.6,22.1,25.9
				S1367.3,2514,1363.6,2523z M1301,2447.4c-7.5,0-13.6,6.1-13.6,13.6s6.1,13.6,13.6,13.6c7.5,0,13.6-6.1,13.6-13.6
				S1308.5,2447.4,1301,2447.4z M1314.6,2503.8c0-7.5-6.1-13.5-13.5-13.5c-7.5,0-13.5,6.1-13.5,13.5v32.5c0,7.5,6.1,13.5,13.5,13.5
				c7.5,0,13.5-6.1,13.5-13.5V2503.8"/>
		</g>
	</g>
</g>
</svg>
