<?xml version="1.0" encoding="utf-8"?>
<!-- Generator: Adobe Illustrator 27.8.0, SVG Export Plug-In . SVG Version: 6.00 Build 0)  -->
<svg version="1.1"
	 id="svg1431" xmlns:svg="http://www.w3.org/2000/svg" xmlns:sodipodi="http://sodipodi.sourceforge.net/DTD/sodipodi-0.dtd" xmlns:inkscape="http://www.inkscape.org/namespaces/inkscape" sodipodi:docname="215.eps"
	 xmlns="http://www.w3.org/2000/svg" xmlns:xlink="http://www.w3.org/1999/xlink" x="0px" y="0px" viewBox="0 0 250 250"
	 style="enable-background:new 0 0 250 250;" xml:space="preserve">
<style type="text/css">
	.st0{fill:#A8BAA9;}
</style>
<sodipodi:namedview  bordercolor="#ffffff" borderopacity="1" id="namedview1433" inkscape:current-layer="g1441" inkscape:cx="511.75545" inkscape:cy="335.16378" inkscape:deskcolor="#505050" inkscape:pagecheckerboard="1" inkscape:pageopacity="0" inkscape:showpageshadow="0" inkscape:window-height="737" inkscape:window-maximized="1" inkscape:window-width="1360" inkscape:window-x="0" inkscape:window-y="0" inkscape:zoom="0.69369071" pagecolor="#505050" showgrid="false">
	</sodipodi:namedview>
<g id="g1439" transform="matrix(1.3333333,0,0,-1.3333333,-232.89519,188.16933)" inkscape:groupmode="layer" inkscape:label="Page 1">
	<g id="g1441" transform="scale(0.1)">
		<g id="g3574" transform="matrix(4.7765834,0,0,4.7765834,-6596.6109,-5329.7789)">
			<path id="path1539" class="st0" d="M1971.1,1224.1c-0.1,0-0.3,0-0.4,0c-8-0.2-14.3-6.8-14.3-14.8v-175.6c0-8.3,6.7-15,15-15
				c8.3,0,15,6.7,15,15v175.6C1986.4,1217.7,1979.5,1224.3,1971.1,1224.1z M2071.6,1355.5c-2.2,2.6-2.2,6.4,0,9.1l28,32.7
				c3.9,4.5,0.7,11.5-5.3,11.5h-131c-3.8,0-6.9-3.1-6.9-6.9v-83.5c0-3.8,3.1-6.9,6.9-6.9h131c5.9,0,9.1,7,5.3,11.5L2071.6,1355.5"/>
			<path id="path1541" class="st0" d="M1857.7,1317c26,0,47.1,21.1,47.1,47.2c0,26-21.1,47.1-47.1,47.1c-26,0-47.2-21.1-47.2-47.1
				C1810.6,1338.1,1831.7,1317,1857.7,1317z M1976.4,1288.7H1823c-9.6,0-17.9-6.9-19.7-16.3L1785,1174c-1-5.2,0.2-10.6,3.2-15
				l25.1-36.5c2-2.9,3.2-6.2,3.5-9.7l6.1-75.6c0.8-10.4,9.5-18.4,19.9-18.4h27.1c10.4,0,19.1,8,19.9,18.4l6.2,77.2
				c0.2,2.5,0.8,4.9,1.9,7.1l6.4,13.1c1.3,2.7,2,5.7,2,8.7v105.4h70c11,0,20,9,20,20C1996.4,1279.8,1987.4,1288.7,1976.4,1288.7"/>
		</g>
	</g>
</g>
</svg>
