<?xml version="1.0" encoding="utf-8"?>
<!-- Generator: Adobe Illustrator 27.8.0, SVG Export Plug-In . SVG Version: 6.00 Build 0)  -->
<svg version="1.1"
	 id="svg1431" xmlns:inkscape="http://www.inkscape.org/namespaces/inkscape" xmlns:sodipodi="http://sodipodi.sourceforge.net/DTD/sodipodi-0.dtd" xmlns:svg="http://www.w3.org/2000/svg"
	 xmlns="http://www.w3.org/2000/svg" xmlns:xlink="http://www.w3.org/1999/xlink" x="0px" y="0px" viewBox="0 0 250 250"
	 style="enable-background:new 0 0 250 250;" xml:space="preserve">
<style type="text/css">
	.st0{fill:#A8BAA9;}
</style>
<sodipodi:namedview  bordercolor="#ffffff" borderopacity="1" id="namedview1433" inkscape:current-layer="g1441" inkscape:cx="511.75545" inkscape:cy="335.16378" inkscape:deskcolor="#505050" inkscape:pagecheckerboard="1" inkscape:pageopacity="0" inkscape:showpageshadow="0" inkscape:window-height="737" inkscape:window-maximized="1" inkscape:window-width="1360" inkscape:window-x="0" inkscape:window-y="0" inkscape:zoom="0.69369071" pagecolor="#505050" showgrid="false">
	</sodipodi:namedview>
<g id="g1439" transform="matrix(1.3333333,0,0,-1.3333333,-44.882347,186.20729)" inkscape:groupmode="layer" inkscape:label="Page 1">
	<g id="g1441" transform="scale(0.1)">
		<g id="g7255" transform="matrix(5.1637341,0,0,5.1637341,-1401.5862,-5814.8823)">
			<path id="path1547" class="st0" d="M608.6,1188.2l-61.8-48.2c-3.1-2.4-6.8-3.7-10.7-3.7l-44.2,0c-6,0-10.9,4.9-10.9,10.9
				c0,6,4.9,10.9,10.9,10.9l37,0c12,0,21.8,9.7,21.8,21.8c0,12-9.7,21.8-21.8,21.8l-84.8,0.1l0,0l-5.7,0c-11.7,0-23.1-3.9-32.3-11.1
				l-30.3-23.7c-1.9-1.5-2.2-4.2-0.7-6.1l58.6-74.4c0.8-1,2.1-1.6,3.4-1.7l71.1-0.7l19.7-0.2c11.9-0.1,23.5,3.8,32.9,11.2l74.7,58.9
				c9.5,7.5,11.1,21.2,3.6,30.6C631.8,1193.9,618.1,1195.6,608.6,1188.2L608.6,1188.2z M661.1,1269.2l-58.6,74.4
				c-0.8,1-2.1,1.6-3.4,1.7l-71.1,0.7l-19.7,0.2c-11.9,0.1-23.5-3.8-32.9-11.2l-74.7-58.9c-9.5-7.5-11.1-21.2-3.6-30.6
				c7.4-9.4,21.1-11.1,30.6-3.7l61.8,48.2c3.1,2.4,6.8,3.7,10.7,3.7l44.2,0c6,0,10.9-4.9,10.9-10.9c0-6-4.9-10.9-10.9-10.9l-37,0
				c-12,0-21.8-9.7-21.8-21.8c0-12,9.7-21.8,21.8-21.8l60.8-0.1l29.7,0c11.7,0,23.1,3.9,32.3,11.1l30.3,23.7
				C662.3,1264.6,662.6,1267.3,661.1,1269.2"/>
			<path id="path1549" class="st0" d="M358.1,1147.3c-1.5,1.9-4.2,2.2-6.1,0.7l-13.7-10.8c-1.9-1.5-2.2-4.2-0.7-6.1l57.2-72.7
				c1.5-1.9,4.2-2.2,6.1-0.7l13.7,10.8c1.9,1.5,2.2,4.2,0.7,6.1L358.1,1147.3z M698.8,1298.9l-57.2,72.7c-1.5,1.9-4.2,2.2-6.1,0.7
				l-13.7-10.8c-1.9-1.5-2.2-4.2-0.7-6.1l57.2-72.7c1.5-1.9,4.2-2.2,6.1-0.7l13.7,10.8C700,1294.2,700.3,1297,698.8,1298.9"/>
		</g>
	</g>
</g>
</svg>
