<?xml version="1.0" encoding="utf-8"?>
<!-- Generator: Adobe Illustrator 27.8.0, SVG Export Plug-In . SVG Version: 6.00 Build 0)  -->
<svg version="1.1"
	 id="svg1431" xmlns:svg="http://www.w3.org/2000/svg" xmlns:sodipodi="http://sodipodi.sourceforge.net/DTD/sodipodi-0.dtd" xmlns:inkscape="http://www.inkscape.org/namespaces/inkscape" sodipodi:docname="215.eps"
	 xmlns="http://www.w3.org/2000/svg" xmlns:xlink="http://www.w3.org/1999/xlink" x="0px" y="0px" viewBox="0 0 250 250"
	 style="enable-background:new 0 0 250 250;" xml:space="preserve">
<style type="text/css">
	.st0{fill:#A8BAA9;}
</style>
<sodipodi:namedview  bordercolor="#ffffff" borderopacity="1" id="namedview1433" inkscape:current-layer="g1441" inkscape:cx="511.75545" inkscape:cy="335.16378" inkscape:deskcolor="#505050" inkscape:pagecheckerboard="1" inkscape:pageopacity="0" inkscape:showpageshadow="0" inkscape:window-height="737" inkscape:window-maximized="1" inkscape:window-width="1360" inkscape:window-x="0" inkscape:window-y="0" inkscape:zoom="0.69369071" pagecolor="#505050" showgrid="false">
	</sodipodi:namedview>
<g id="g1439" transform="matrix(1.3333333,0,0,-1.3333333,-411.82819,186.38359)" inkscape:groupmode="layer" inkscape:label="Page 1">
	<g id="g1441" transform="scale(0.1)">
		<g id="g5283" transform="matrix(5.1264207,0,0,5.1264207,-12745.323,-5768.2279)">
			<path id="path1531" class="st0" d="M3442.5,1179.2L3442.5,1179.2c-8.6,10.8-24.2,12.7-35.1,4.2l-70.8-55.5
				c-3.5-2.8-7.9-4.2-12.3-4.3l-50.7-0.1c-6.9,0-12.5,5.6-12.5,12.5c0,6.9,5.6,12.5,12.5,12.5l42.5,0.1c13.8,0,25,11.2,25,25
				c0,13.8-11.2,25-25,25l-97.3-0.1l-6.6,0c-13.4,0-26.5-4.5-37-12.8l-34.7-27.3c-2.2-1.7-2.5-4.9-0.8-7l67.4-85.3
				c0.9-1.2,2.4-1.9,3.9-1.9l81.6-0.7l22.6-0.2c13.7-0.1,27,4.4,37.7,12.9l85.7,67.7C3449.2,1152.6,3451.1,1168.3,3442.5,1179.2"/>
			<path id="path1533" class="st0" d="M3119.9,1135.9c-1.7,2.2-4.9,2.5-7,0.8l-15.7-12.4c-2.2-1.7-2.5-4.8-0.8-7l65.8-83.3
				c1.7-2.2,4.9-2.5,7-0.8l15.7,12.4c2.2,1.7,2.5,4.8,0.8,7L3119.9,1135.9z M3297.8,1397.4c-32.4-3.7-63.6-34.7-67.4-67.1
				c-2.9-24.4,5.7-46.9,21.1-62.8c8.9-9.2,13.8-21.5,13.8-34.3v0c0-6.5,5.3-11.8,11.8-11.8h59.2c6.5,0,11.8,5.3,11.8,11.8
				c0,12.7,4.7,25,13.6,34c13.6,13.8,21.9,32.8,21.9,53.7C3383.7,1366.4,3344.3,1402.6,3297.8,1397.4L3297.8,1397.4z M3343.4,1309.4
				l-52-47.5c-2.7-2.5-7,0.3-5.8,3.8l11.1,33.2c0.8,2.3-1,4.7-3.4,4.7h-20.8c-3.3,0-4.8,4-2.4,6.2l52,47.5c2.7,2.5,6.9-0.3,5.8-3.8
				l-11.1-33.2c-0.8-2.3,0.9-4.7,3.4-4.7h20.8C3344.3,1315.6,3345.8,1311.6,3343.4,1309.4"/>
		</g>
	</g>
</g>
</svg>
