<?xml version="1.0" encoding="utf-8"?>
<!-- Generator: Adobe Illustrator 27.8.0, SVG Export Plug-In . SVG Version: 6.00 Build 0)  -->
<svg version="1.1"
	 id="svg1431" xmlns:inkscape="http://www.inkscape.org/namespaces/inkscape" xmlns:sodipodi="http://sodipodi.sourceforge.net/DTD/sodipodi-0.dtd" xmlns:svg="http://www.w3.org/2000/svg"
	 xmlns="http://www.w3.org/2000/svg" xmlns:xlink="http://www.w3.org/1999/xlink" x="0px" y="0px" viewBox="0 0 250 250"
	 style="enable-background:new 0 0 250 250;" xml:space="preserve">
<style type="text/css">
	.st0{fill:#A8BAA9;}
</style>
<sodipodi:namedview  bordercolor="#ffffff" borderopacity="1" id="namedview1433" inkscape:current-layer="g1441" inkscape:cx="511.75545" inkscape:cy="335.16378" inkscape:deskcolor="#505050" inkscape:pagecheckerboard="1" inkscape:pageopacity="0" inkscape:showpageshadow="0" inkscape:window-height="737" inkscape:window-maximized="1" inkscape:window-width="1360" inkscape:window-x="0" inkscape:window-y="0" inkscape:zoom="0.69369071" pagecolor="#505050" showgrid="false">
	</sodipodi:namedview>
<g id="g1439" transform="matrix(1.3333333,0,0,-1.3333333,-495.74134,454.59267)" inkscape:groupmode="layer" inkscape:label="Page 1">
	<g id="g1441" transform="scale(0.1)">
		<g id="g7783" transform="matrix(6.0700247,0,0,6.0700247,-18850.655,-17285.97)">
			<path id="path1599" class="st0" d="M4026,3298.8l-56.8,60.3c-1.3,1.4-3.4,1.4-4.8,0.1l-23.9-22.5c-1.4-1.3-1.4-3.4-0.1-4.8
				l56.8-60.3c1.3-1.4,3.4-1.4,4.8-0.1l23.9,22.5C4027.3,3295.3,4027.3,3297.4,4026,3298.8L4026,3298.8z M4005.3,3291.9
				c-3-2.8-7.7-2.7-10.5,0.3c-2.8,3-2.7,7.7,0.3,10.5c3,2.8,7.7,2.7,10.5-0.3C4008.4,3299.4,4008.3,3294.7,4005.3,3291.9z
				 M3776.5,3350.8c-1.5,1.2-3.6,0.9-4.8-0.6l-53-68.2c-1.1-1.5-0.9-3.6,0.6-4.8l26-20.2c1.5-1.2,3.6-0.9,4.8,0.6l53,68.2
				c1.2,1.5,0.9,3.6-0.6,4.8L3776.5,3350.8z M3751.6,3279.7c-2.5-3.2-7.2-3.8-10.5-1.3c-3.2,2.5-3.8,7.2-1.3,10.4
				c2.5,3.2,7.2,3.8,10.4,1.3S3754.1,3283,3751.6,3279.7"/>
			<path id="path1601" class="st0" d="M3948.7,3213.7l-58.2,45.5l-10.6-9.7c-15-13.5-28.5-17.1-38.7-17.1c-2.6,0-5,0.2-7.2,0.6
				c-14,2.4-23.5,11.4-27.8,19.1c-5.3,8.4-3.7,18.9,3.7,25.8l41.8,38c-4.9,3.8-10.7,5.6-16.5,5.6c-8.1,0-16.2-3.6-21.5-10.6
				l-40.8-52.8c-3.3-4.3-4.8-9.7-4.2-15.1l2.6-21.4c0.7-5.4,3.4-10.3,7.7-13.6l71.6-55.8c2-1.6,4.4-2.3,6.8-2.3c3,0,5.9,1.2,8.1,3.6
				l3.2,3.5c4.2,4.6,3.8,11.8-1,15.8l12-10.1c2-1.7,4.6-2.6,7.1-2.6c2.8,0,5.5,1,7.6,3.1l3.7,3.6c4.7,4.5,4.4,12.2-0.6,16.3l8.9-7.4
				c2-1.7,4.5-2.5,7-2.5c2.8,0,5.6,1,7.7,3.1l3.3,3.2c4.6,4.5,4.4,11.9-0.5,16.1l5.9-5.1c2.1-1.8,4.6-2.7,7.2-2.7
				c3.1,0,6.3,1.3,8.4,3.9l5.1,6.1C3954.4,3202.7,3953.6,3209.9,3948.7,3213.7L3948.7,3213.7z M3977.2,3268.1l-49.2,50.2
				c-2.1,2.2-4.9,3.6-7.9,4l-25.2,3.3c-4,0.5-7.9-0.7-10.9-3.4l-5.9-5.4l-56.6-51.5c-0.6-0.6-2-2.2-0.8-4.2l0.4-0.6
				c2.2-4.1,7.7-9.3,15.9-10.7c9.8-1.7,20.7,2.6,31.5,12.3l21.2,19.4l66.6-52l20.8,19.5C3982.4,3254.1,3982.4,3262.7,3977.2,3268.1"
				/>
		</g>
	</g>
</g>
</svg>
