<?xml version="1.0" encoding="utf-8"?>
<!-- Generator: Adobe Illustrator 27.8.0, SVG Export Plug-In . SVG Version: 6.00 Build 0)  -->
<svg version="1.1"
	 id="svg1431" xmlns:inkscape="http://www.inkscape.org/namespaces/inkscape" xmlns:sodipodi="http://sodipodi.sourceforge.net/DTD/sodipodi-0.dtd" xmlns:svg="http://www.w3.org/2000/svg"
	 xmlns="http://www.w3.org/2000/svg" xmlns:xlink="http://www.w3.org/1999/xlink" x="0px" y="0px" viewBox="0 0 250 250"
	 style="enable-background:new 0 0 250 250;" xml:space="preserve">
<style type="text/css">
	.st0{fill:#A8BAA9;}
</style>
<sodipodi:namedview  bordercolor="#ffffff" borderopacity="1" id="namedview1433" inkscape:current-layer="g1441" inkscape:cx="511.75545" inkscape:cy="335.16378" inkscape:deskcolor="#505050" inkscape:pagecheckerboard="1" inkscape:pageopacity="0" inkscape:showpageshadow="0" inkscape:window-height="737" inkscape:window-maximized="1" inkscape:window-width="1360" inkscape:window-x="0" inkscape:window-y="0" inkscape:zoom="0.69369071" pagecolor="#505050" showgrid="false">
	</sodipodi:namedview>
<g id="g1439" transform="matrix(1.3333333,0,0,-1.3333333,-413.37064,97.333846)" inkscape:groupmode="layer" inkscape:label="Page 1">
	<g id="g1441" transform="scale(0.1)">
		<g id="g7518" transform="matrix(4.8076431,0,0,4.8076431,-11804.76,-2779.5947)">
			<path id="path1507" class="st0" d="M3349.5,566.7c0-31.7-25-57.5-55.6-57.5c-30.7,0-55.6,25.8-55.6,57.5
				c0,31.7,25,57.5,55.6,57.5c2.5,0,5-0.2,7.5-0.6l31.9,31.9c-12,5.6-25.3,8.7-39.3,8.7c-52.7,0-95.6-43.8-95.6-97.5
				c0-53.8,42.9-97.5,95.6-97.5c52.7,0,95.6,43.8,95.6,97.5c0,13.6-2.8,26.6-7.8,38.4l-32.5-32.5
				C3349.4,570.6,3349.5,568.7,3349.5,566.7z M3393.9,437.8c38.5,29.9,63.4,76.5,63.4,128.9c0,17.8-3,35-8.3,51l-8.9-8.9
				c-6.5-6.5-15.2-10.1-24.4-10.1c-1,0-1.9,0.2-2.9,0.3c2.8-10.3,4.5-21.1,4.5-32.3c0-68-55.3-123.3-123.3-123.3
				c-68,0-123.3,55.3-123.3,123.3c0,68,55.3,123.3,123.3,123.3c12.9,0,25.4-2,37.2-5.8c0.2,8.7,3.6,17.2,10,23.6l11.2,11.2
				c-18.2,7-37.8,11-58.4,11c-90.1,0-163.3-73.3-163.3-163.3c0-55.9,28.2-105.3,71.2-134.7l-26.9-71.7c-2.9-7.8,1-16.4,8.8-19.3
				c1.7-0.7,3.5-1,5.3-1c6.1,0,11.8,3.7,14,9.7l25.3,67.5c17.2-7.6,36-12.2,55.6-13.4V355c0-8.3,6.7-15,15-15c8.3,0,15,6.7,15,15
				v49.7c19.3,2.4,37.5,8.1,54.1,16.6l26.8-71.6c2.3-6,8-9.7,14.1-9.7c1.8,0,3.5,0.3,5.3,1c7.8,2.9,11.7,11.6,8.8,19.3L3393.9,437.8
				"/>
			<path id="path1509" class="st0" d="M3453.9,676.9l-28.4,10.9c-2.5,1-4.5,2.9-5.4,5.4l-10.9,28.4c-1.5,3.9-5.1,6.1-8.9,6.1
				c-2.4,0-4.8-0.9-6.7-2.8l-34.9-34.8c-2.6-2.6-3.5-6.6-2.1-10.1l9.2-23.8l-59.9-59.8c-3.7,1.5-7.8,2.4-12,2.4
				c-17.7,0-32.1-14.4-32.1-32.1c0-17.7,14.4-32.1,32.1-32.1s32.1,14.4,32.1,32.1c0,4.3-0.9,8.3-2.4,12l57.6,57.6l31.1-11.9
				c1.1-0.4,2.3-0.6,3.4-0.6c2.5,0,4.9,1,6.7,2.8l34.9,34.8C3462.1,666.2,3460.3,674.4,3453.9,676.9"/>
		</g>
	</g>
</g>
</svg>
