<?xml version="1.0" encoding="UTF-8" standalone="no"?>
<!-- Created with Inkscape (http://www.inkscape.org/) -->

<svg
   version="1.1"
   id="svg148"
   width="141.65039"
   height="141.65063"
   viewBox="0 0 141.65039 141.65063"
   sodipodi:docname="MANUAL CORPORATIVO POTENCIA MANUAL.pdf"
   xmlns:inkscape="http://www.inkscape.org/namespaces/inkscape"
   xmlns:sodipodi="http://sodipodi.sourceforge.net/DTD/sodipodi-0.dtd"
   xmlns="http://www.w3.org/2000/svg"
   xmlns:svg="http://www.w3.org/2000/svg">
  <defs
     id="defs152">
    <clipPath
       clipPathUnits="userSpaceOnUse"
       id="clipPath1622">
      <path
         d="m 724.479,230.419 c -14.4,0 -26.075,-11.674 -26.075,-26.075 v 0 -54.088 c 0,-14.399 11.675,-26.075 26.075,-26.075 v 0 h 54.089 c 14.399,0 26.073,11.676 26.073,26.075 v 0 54.088 c 0,14.401 -11.674,26.075 -26.073,26.075 v 0 z"
         id="path1620" />
    </clipPath>
    <clipPath
       clipPathUnits="userSpaceOnUse"
       id="clipPath1650">
      <path
         d="M 0,1080 H 1413.02 V 0 H 0 Z"
         id="path1648" />
    </clipPath>
  </defs>
  <sodipodi:namedview
     id="namedview150"
     pagecolor="#505050"
     bordercolor="#ffffff"
     borderopacity="1"
     inkscape:showpageshadow="0"
     inkscape:pageopacity="0"
     inkscape:pagecheckerboard="1"
     inkscape:deskcolor="#505050"
     showgrid="false" />
  <g
     id="g1590"
     inkscape:groupmode="layer"
     inkscape:label="Page 12"
     transform="matrix(1.3333333,0,0,-1.3333333,-931.20543,307.22534)">
    <g
       id="g1616">
      <g
         id="g1618"
         clip-path="url(#clipPath1622)">
        <g
           id="g1624"
           transform="translate(664.9961,218.5977)">
          <path
             d="M 0,0 127.824,45.229 173.055,-82.595 45.23,-127.825 Z"
             style="fill:#2e2e2e;fill-opacity:1;fill-rule:nonzero;stroke:none"
             id="path1626" />
        </g>
      </g>
    </g>
    <g
       id="g1644">
      <g
         id="g1646"
         clip-path="url(#clipPath1650)">
        <g
           id="g1900"
           transform="translate(751.6055,214.2764)">
          <path
             d="m 0,0 c -0.158,0.006 -0.354,0 -0.427,-0.008 -0.076,-0.015 -0.215,-0.046 -0.308,-0.07 -0.095,-0.031 -0.255,-0.089 -0.359,-0.135 -0.1,-0.051 -0.25,-0.134 -0.329,-0.183 -0.08,-0.055 -0.229,-0.18 -0.328,-0.275 -0.095,-0.095 -0.22,-0.234 -0.274,-0.308 -0.055,-0.076 -8.754,-14.746 -19.336,-32.605 -10.576,-17.857 -19.295,-32.568 -19.365,-32.693 -0.075,-0.125 -0.165,-0.309 -0.204,-0.409 -0.035,-0.094 -0.091,-0.278 -0.115,-0.408 -0.039,-0.188 -0.045,-0.283 -0.034,-0.527 0.005,-0.214 0.024,-0.358 0.069,-0.518 0.03,-0.119 0.096,-0.308 0.144,-0.413 0.05,-0.109 0.145,-0.274 0.21,-0.368 0.069,-0.095 0.199,-0.249 0.293,-0.344 0.094,-0.093 0.223,-0.204 0.289,-0.254 0.064,-0.045 0.219,-0.128 0.344,-0.193 0.128,-0.06 0.334,-0.141 0.457,-0.174 l 0.224,-0.064 h 13.762 l 17,28.691 c 9.357,15.787 17.002,28.713 16.998,28.732 -0.005,0.02 -1.524,2.594 -3.375,5.719 -1.852,3.131 -3.409,5.747 -3.464,5.823 -0.056,0.076 -0.185,0.218 -0.288,0.318 -0.105,0.1 -0.25,0.225 -0.324,0.27 -0.07,0.049 -0.22,0.128 -0.324,0.179 -0.104,0.05 -0.293,0.113 -0.413,0.15 -0.165,0.038 -0.298,0.059 -0.518,0.064 z m 11.547,-17.293 c -0.015,0.009 -0.054,-0.04 -0.105,-0.116 -0.04,-0.073 -7.057,-11.908 -15.587,-26.308 -8.531,-14.398 -15.514,-26.188 -15.519,-26.203 -0.01,-0.029 1.07,-0.035 7.138,-0.035 h 7.151 l 12.03,20.307 c 6.618,11.162 12.029,20.305 12.025,20.314 0,0.012 -1.604,2.719 -3.559,6.02 -1.957,3.296 -3.563,6.01 -3.574,6.021 m 9.949,-16.803 c 0,0 -4.773,-8.028 -10.587,-17.842 C 5.097,-61.753 0.313,-69.821 0.284,-69.87 l -0.049,-0.085 14.323,0.01 7.047,11.889 7.042,11.896 -0.024,0.051 c -0.015,0.029 -1.621,2.74 -3.568,6.03 -1.951,3.29 -3.553,5.983 -3.559,5.983 m 9.957,-16.812 c 0,0 -2.547,-4.281 -5.642,-9.511 -3.1,-5.226 -5.634,-9.517 -5.634,-9.521 0,-0.009 4.211,-0.015 9.356,-0.009 l 9.363,0.004 0.144,0.04 c 0.084,0.02 0.204,0.059 0.274,0.079 0.069,0.025 0.208,0.085 0.309,0.14 0.099,0.049 0.244,0.134 0.317,0.188 0.075,0.06 0.21,0.175 0.294,0.26 0.085,0.085 0.204,0.233 0.268,0.323 0.061,0.095 0.155,0.254 0.206,0.363 0.049,0.105 0.118,0.294 0.148,0.413 0.055,0.195 0.06,0.27 0.06,0.587 0.005,0.3 -0.005,0.399 -0.045,0.558 -0.024,0.104 -0.086,0.274 -0.124,0.373 -0.046,0.105 -2.15,3.678 -4.679,7.949 -2.527,4.27 -4.607,7.764 -4.615,7.764"
             style="fill:#abada8;fill-opacity:1;fill-rule:nonzero;stroke:none"
             id="path1902" />
        </g>
      </g>
    </g>
  </g>
</svg>
