<?xml version="1.0" encoding="UTF-8" standalone="no"?>
<!-- Created with Inkscape (http://www.inkscape.org/) -->

<svg
   version="1.1"
   id="svg148"
   width="825.65338"
   height="211.24786"
   viewBox="0 0 825.65337 211.24786"
   sodipodi:docname="logo.svg"
   xmlns:inkscape="http://www.inkscape.org/namespaces/inkscape"
   xmlns:sodipodi="http://sodipodi.sourceforge.net/DTD/sodipodi-0.dtd"
   xmlns="http://www.w3.org/2000/svg"
   xmlns:svg="http://www.w3.org/2000/svg">
  <defs
     id="defs152">
    <clipPath
       clipPathUnits="userSpaceOnUse"
       id="clipPath182">
      <path
         d="M 0,1080 H 1413.02 V 0 H 0 Z"
         id="path180" />
    </clipPath>
  </defs>
  <sodipodi:namedview
     id="namedview150"
     pagecolor="#505050"
     bordercolor="#ffffff"
     borderopacity="1"
     inkscape:showpageshadow="0"
     inkscape:pageopacity="0"
     inkscape:pagecheckerboard="1"
     inkscape:deskcolor="#505050"
     showgrid="false" />
  <g
     id="g156"
     inkscape:groupmode="layer"
     inkscape:label="Page 1"
     transform="matrix(1.3333333,0,0,-1.3333333,-529.74732,825.89945)">
    <g
       id="g176"
       style="fill:#ffffff">
      <g
         id="g178"
         clip-path="url(#clipPath182)"
         style="fill:#ffffff">
        <g
           id="g184"
           transform="translate(431.0347,471.7285)"
           style="fill:#ffffff">
          <path
             d="m 0,0 c 1.442,0 2.753,0.372 3.93,1.115 1.198,0.763 2.211,1.768 3.062,3.01 0.844,1.26 1.494,2.697 1.94,4.303 0.46,1.625 0.694,3.294 0.694,5.001 0,2.652 -0.587,4.693 -1.765,6.116 -1.178,1.424 -2.808,2.136 -4.9,2.136 -1.443,0 -2.759,-0.372 -3.955,-1.115 -1.179,-0.75 -2.187,-1.745 -3.031,-2.986 -0.831,-1.228 -1.48,-2.645 -1.939,-4.252 -0.466,-1.606 -0.7,-3.281 -0.7,-5.026 0,-2.633 0.579,-4.68 1.738,-6.142 C -3.747,0.718 -2.104,0 0,0 m -0.195,-1.871 c -1.328,0 -2.538,0.233 -3.635,0.699 -1.077,0.466 -2.002,1.134 -2.784,2.016 -0.761,0.876 -1.36,1.94 -1.788,3.181 -0.416,1.26 -0.624,2.691 -0.624,4.277 0,2.009 0.296,3.93 0.894,5.77 0.599,1.839 1.437,3.464 2.514,4.875 1.096,1.411 2.387,2.532 3.88,3.357 1.493,0.844 3.13,1.273 4.925,1.273 1.323,0 2.526,-0.233 3.604,-0.7 1.095,-0.466 2.022,-1.133 2.783,-2.015 0.781,-0.876 1.38,-1.946 1.797,-3.206 0.426,-1.247 0.641,-2.646 0.641,-4.202 0,-2.009 -0.301,-3.93 -0.919,-5.769 C 10.495,5.839 9.656,4.208 8.579,2.784 7.502,1.373 6.216,0.246 4.725,-0.599 3.231,-1.442 1.594,-1.871 -0.195,-1.871"
             style="fill:#ffffff;fill-opacity:1;fill-rule:nonzero;stroke:none"
             id="path186" />
        </g>
        <g
           id="g188"
           transform="translate(460.5894,480.7607)"
           style="fill:#ffffff">
          <path
             d="m 0,0 c 1.064,0 2.009,0.227 2.834,0.674 0.845,0.448 1.55,1.027 2.116,1.739 0.581,0.731 1.021,1.549 1.318,2.462 0.315,0.927 0.473,1.859 0.473,2.785 0,1.726 -0.467,3.017 -1.394,3.88 -0.912,0.882 -2.128,1.316 -3.653,1.316 -1.077,0 -2.034,-0.214 -2.86,-0.642 -0.83,-0.416 -1.53,-0.97 -2.091,-1.67 C -3.823,9.852 -4.252,9.045 -4.547,8.132 -4.85,7.238 -4.996,6.318 -4.996,5.373 -4.996,3.616 -4.547,2.28 -3.654,1.367 -2.759,0.454 -1.543,0 0,0 m 4.85,-8.258 c -2.388,0.353 -4.467,0.442 -6.241,0.278 -1.777,-0.17 -3.251,-0.517 -4.428,-1.046 -1.16,-0.529 -2.03,-1.203 -2.61,-2.016 -0.578,-0.812 -0.88,-1.675 -0.893,-2.588 0,-0.712 0.156,-1.342 0.473,-1.891 0.327,-0.56 0.793,-1.026 1.391,-1.391 0.592,-0.378 1.316,-0.668 2.161,-0.87 0.843,-0.201 1.781,-0.296 2.809,-0.296 1.311,0 2.494,0.17 3.559,0.523 1.057,0.347 1.965,0.813 2.708,1.392 0.762,0.58 1.355,1.241 1.769,1.991 0.41,0.743 0.619,1.511 0.619,2.312 0.019,0.812 -0.107,1.505 -0.372,2.083 -0.264,0.587 -0.587,1.116 -0.97,1.595 z M 12.735,13.304 12.662,12.51 C 12.629,12.346 12.56,12.195 12.46,12.063 12.358,11.949 12.194,11.874 11.961,11.842 L 7.937,11.515 C 8.232,11.004 8.466,10.431 8.63,9.801 8.8,9.184 8.881,8.498 8.881,7.735 8.862,6.822 8.736,5.997 8.503,5.247 8.29,4.504 8.02,3.817 7.686,3.181 7.356,2.57 6.992,1.991 6.589,1.443 6.211,0.914 5.852,0.391 5.524,-0.126 5.19,-0.636 4.919,-1.159 4.699,-1.688 4.485,-2.223 4.378,-2.784 4.378,-3.382 4.359,-3.849 4.454,-4.277 4.648,-4.673 4.85,-5.07 5.102,-5.474 5.399,-5.87 5.694,-6.267 6.01,-6.664 6.344,-7.061 6.688,-7.458 7.018,-7.892 7.313,-8.358 7.609,-8.818 7.854,-9.329 8.03,-9.87 c 0.202,-0.548 0.303,-1.165 0.303,-1.846 -0.019,-1.039 -0.29,-2.047 -0.818,-3.004 -0.517,-0.983 -1.254,-1.846 -2.218,-2.589 -0.963,-0.743 -2.122,-1.342 -3.483,-1.789 -1.341,-0.447 -2.841,-0.674 -4.498,-0.674 -1.31,0 -2.513,0.132 -3.608,0.397 -1.077,0.265 -2.016,0.655 -2.811,1.171 -0.78,0.498 -1.385,1.109 -1.814,1.84 -0.434,0.73 -0.648,1.562 -0.648,2.488 0.019,1.392 0.442,2.601 1.273,3.628 0.844,1.033 1.959,1.852 3.357,2.463 1.404,0.631 3.023,1.039 4.844,1.222 1.826,0.183 3.736,0.138 5.725,-0.126 -0.283,0.384 -0.522,0.787 -0.723,1.215 -0.195,0.435 -0.297,0.914 -0.297,1.443 0,0.586 0.102,1.172 0.297,1.77 0.201,0.598 0.579,1.317 1.146,2.159 C 3.39,-0.561 2.677,-0.919 1.916,-1.165 1.153,-1.417 0.321,-1.543 -0.572,-1.543 c -0.945,0 -1.821,0.151 -2.634,0.447 -0.813,0.303 -1.512,0.743 -2.091,1.323 -0.581,0.592 -1.034,1.316 -1.367,2.161 -0.334,0.862 -0.497,1.858 -0.497,2.985 0,1.147 0.202,2.262 0.599,3.357 0.415,1.109 1,2.098 1.761,2.961 0.782,0.863 1.734,1.55 2.861,2.066 1.128,0.529 2.413,0.794 3.856,0.794 1.706,0 3.167,-0.416 4.376,-1.247 z"
             style="fill:#ffffff;fill-opacity:1;fill-rule:nonzero;stroke:none"
             id="path190" />
        </g>
        <g
           id="g192"
           transform="translate(485.4834,494.9399)"
           style="fill:#ffffff">
          <path
             d="M 0,0 -3.012,-24.749 H -5.323 L -2.313,0 Z M 1.812,8.529 C 1.812,8.232 1.745,7.949 1.613,7.685 1.499,7.433 1.342,7.212 1.14,7.011 0.943,6.815 0.711,6.658 0.446,6.538 0.195,6.425 -0.058,6.362 -0.329,6.362 c -0.277,0 -0.542,0.063 -0.793,0.176 -0.246,0.12 -0.466,0.277 -0.649,0.473 -0.177,0.201 -0.327,0.422 -0.448,0.674 -0.113,0.264 -0.169,0.547 -0.169,0.844 0,0.296 0.056,0.579 0.169,0.844 0.121,0.264 0.271,0.497 0.448,0.699 0.202,0.214 0.428,0.378 0.674,0.497 0.252,0.114 0.517,0.171 0.794,0.171 0.271,0 0.523,-0.057 0.774,-0.171 C 0.737,10.45 0.969,10.292 1.165,10.097 1.366,9.896 1.523,9.656 1.637,9.373 1.756,9.108 1.812,8.825 1.812,8.529"
             style="fill:#ffffff;fill-opacity:1;fill-rule:nonzero;stroke:none"
             id="path194" />
        </g>
        <g
           id="g196"
           transform="translate(510.3696,491.8911)"
           style="fill:#ffffff">
          <path
             d="m 0,0 c -0.132,-0.233 -0.315,-0.346 -0.542,-0.346 -0.169,0 -0.378,0.1 -0.624,0.296 -0.232,0.214 -0.553,0.447 -0.969,0.699 -0.397,0.265 -0.908,0.497 -1.519,0.693 -0.61,0.214 -1.372,0.327 -2.285,0.327 -0.845,0 -1.651,-0.145 -2.414,-0.428 -0.748,-0.277 -1.405,-0.661 -1.964,-1.14 -0.549,-0.466 -0.991,-1.014 -1.317,-1.644 -0.315,-0.611 -0.473,-1.266 -0.473,-1.965 0,-0.681 0.158,-1.247 0.473,-1.714 0.316,-0.466 0.723,-0.869 1.241,-1.222 0.529,-0.327 1.121,-0.617 1.764,-0.869 0.668,-0.246 1.347,-0.498 2.04,-0.743 0.699,-0.252 1.367,-0.536 2.016,-0.851 0.66,-0.296 1.253,-0.661 1.763,-1.09 0.536,-0.434 0.959,-0.963 1.273,-1.593 0.314,-0.611 0.473,-1.361 0.473,-2.236 0,-1.065 -0.221,-2.091 -0.648,-3.087 -0.417,-0.995 -1.022,-1.883 -1.815,-2.658 -0.782,-0.762 -1.727,-1.379 -2.835,-1.845 -1.096,-0.46 -2.325,-0.693 -3.684,-0.693 -1.588,0 -2.937,0.271 -4.025,0.819 -1.077,0.567 -2.011,1.297 -2.791,2.192 l 0.598,0.844 c 0.182,0.264 0.41,0.397 0.674,0.397 0.165,0 0.373,-0.133 0.624,-0.397 0.245,-0.265 0.586,-0.567 1.014,-0.894 0.433,-0.315 0.989,-0.605 1.669,-0.87 0.68,-0.271 1.531,-0.403 2.564,-0.403 0.995,0 1.89,0.157 2.683,0.472 0.813,0.334 1.5,0.782 2.066,1.348 0.579,0.561 1.027,1.21 1.342,1.94 0.314,0.744 0.472,1.531 0.472,2.363 0,0.724 -0.158,1.341 -0.472,1.839 -0.315,0.498 -0.737,0.919 -1.267,1.266 -0.515,0.363 -1.103,0.674 -1.77,0.92 -0.642,0.25 -1.316,0.491 -2.016,0.724 -0.691,0.246 -1.371,0.51 -2.033,0.794 -0.649,0.302 -1.235,0.655 -1.77,1.07 -0.512,0.416 -0.926,0.92 -1.242,1.518 -0.314,0.599 -0.473,1.323 -0.473,2.186 0,0.964 0.208,1.883 0.625,2.765 0.409,0.895 0.994,1.682 1.738,2.362 0.744,0.693 1.632,1.241 2.666,1.638 1.038,0.416 2.178,0.624 3.4,0.624 1.398,0 2.595,-0.214 3.609,-0.649 1.027,-0.428 1.94,-1.077 2.735,-1.94 z"
             style="fill:#ffffff;fill-opacity:1;fill-rule:nonzero;stroke:none"
             id="path198" />
        </g>
        <g
           id="g200"
           transform="translate(521.0264,474.3359)"
           style="fill:#ffffff">
          <path
             d="m 0,0 v 0.372 c 0.013,0.151 0.033,0.378 0.052,0.674 0.031,0.296 0.07,0.68 0.119,1.146 0.05,0.479 0.126,1.083 0.227,1.814 L 2.085,18.059 H -1.17 c -0.165,0 -0.297,0.05 -0.397,0.145 -0.102,0.101 -0.133,0.239 -0.102,0.422 l 0.126,0.926 3.905,0.296 L 4,28.704 c 0.038,0.145 0.107,0.277 0.228,0.397 0.113,0.113 0.259,0.17 0.421,0.17 H 5.796 L 4.625,19.823 h 7.161 L 11.591,18.059 H 4.423 L 2.709,4.082 C 2.627,3.401 2.551,2.847 2.488,2.413 2.438,1.984 2.395,1.625 2.362,1.342 2.345,1.077 2.325,0.884 2.313,0.75 V 0.447 c 0,-1.077 0.245,-1.858 0.743,-2.337 0.516,-0.478 1.172,-0.717 1.965,-0.717 0.549,0 1.026,0.081 1.442,0.245 0.435,0.183 0.806,0.372 1.122,0.573 0.315,0.214 0.573,0.403 0.768,0.574 0.202,0.182 0.353,0.27 0.448,0.27 0.17,0 0.289,-0.081 0.377,-0.245 L 9.625,-2.236 C 8.958,-2.935 8.158,-3.496 7.213,-3.93 6.269,-4.346 5.324,-4.548 4.378,-4.548 c -1.359,0 -2.43,0.372 -3.211,1.115 C 0.403,-2.683 0.013,-1.543 0,0"
             style="fill:#ffffff;fill-opacity:1;fill-rule:nonzero;stroke:none"
             id="path202" />
        </g>
        <g
           id="g204"
           transform="translate(546.4932,494.9399)"
           style="fill:#ffffff">
          <path
             d="M 0,0 -3.004,-24.749 H -5.321 L -2.311,0 Z M 1.82,8.529 C 1.82,8.232 1.751,7.949 1.619,7.685 1.506,7.433 1.348,7.212 1.146,7.011 0.945,6.815 0.719,6.658 0.455,6.538 0.202,6.425 -0.057,6.362 -0.321,6.362 c -0.284,0 -0.549,0.063 -0.793,0.176 -0.252,0.12 -0.467,0.277 -0.648,0.473 -0.185,0.201 -0.334,0.422 -0.449,0.674 -0.113,0.264 -0.176,0.547 -0.176,0.844 0,0.296 0.063,0.579 0.176,0.844 0.115,0.264 0.264,0.497 0.449,0.699 0.201,0.214 0.42,0.378 0.674,0.497 0.245,0.114 0.509,0.171 0.793,0.171 0.264,0 0.523,-0.057 0.767,-0.171 0.271,-0.119 0.499,-0.277 0.7,-0.472 C 1.374,9.896 1.532,9.656 1.645,9.373 1.757,9.108 1.82,8.825 1.82,8.529"
             style="fill:#ffffff;fill-opacity:1;fill-rule:nonzero;stroke:none"
             id="path206" />
        </g>
        <g
           id="g208"
           transform="translate(573.9575,474.708)"
           style="fill:#ffffff">
          <path
             d="m 0,0 c -0.875,-0.977 -1.714,-1.783 -2.514,-2.413 -0.774,-0.629 -1.549,-1.127 -2.312,-1.493 -0.742,-0.359 -1.505,-0.611 -2.285,-0.743 -0.782,-0.132 -1.608,-0.202 -2.488,-0.202 -1.424,0 -2.672,0.247 -3.73,0.724 -1.045,0.499 -1.914,1.185 -2.614,2.067 -0.694,0.875 -1.216,1.921 -1.569,3.13 -0.347,1.21 -0.516,2.533 -0.516,3.956 0,1.31 0.132,2.602 0.397,3.88 0.277,1.292 0.68,2.52 1.19,3.679 0.518,1.159 1.14,2.23 1.866,3.212 0.729,0.977 1.549,1.821 2.462,2.533 0.912,0.712 1.903,1.272 2.96,1.669 1.077,0.416 2.224,0.624 3.433,0.624 0.813,0 1.543,-0.089 2.185,-0.252 0.668,-0.152 1.272,-0.372 1.821,-0.675 0.548,-0.277 1.04,-0.63 1.493,-1.039 0.447,-0.416 0.857,-0.882 1.242,-1.398 L 0.321,16.44 C 0.176,16.257 0,16.169 -0.195,16.169 c -0.171,0 -0.379,0.132 -0.624,0.397 -0.234,0.265 -0.555,0.548 -0.971,0.844 -0.396,0.315 -0.919,0.605 -1.567,0.869 -0.65,0.265 -1.463,0.403 -2.438,0.403 -1.392,0 -2.696,-0.378 -3.906,-1.121 -1.191,-0.749 -2.237,-1.751 -3.13,-3.011 -0.882,-1.259 -1.575,-2.721 -2.092,-4.378 -0.497,-1.637 -0.743,-3.357 -0.743,-5.146 0,-1.146 0.12,-2.204 0.371,-3.181 0.265,-0.982 0.661,-1.826 1.192,-2.538 0.546,-0.712 1.227,-1.272 2.04,-1.669 0.813,-0.397 1.776,-0.599 2.884,-0.599 0.883,0 1.669,0.095 2.363,0.277 0.7,0.196 1.311,0.441 1.839,0.719 0.549,0.283 1.021,0.591 1.418,0.919 0.414,0.353 0.781,0.668 1.095,0.95 0.317,0.279 0.581,0.512 0.8,0.694 0.227,0.202 0.435,0.296 0.618,0.296 0.183,0 0.359,-0.082 0.522,-0.246 z"
             style="fill:#ffffff;fill-opacity:1;fill-rule:nonzero;stroke:none"
             id="path210" />
        </g>
        <g
           id="g212"
           transform="translate(598.6812,491.8911)"
           style="fill:#ffffff">
          <path
             d="m 0,0 c -0.132,-0.233 -0.317,-0.346 -0.542,-0.346 -0.171,0 -0.379,0.1 -0.624,0.296 -0.232,0.214 -0.555,0.447 -0.971,0.699 -0.397,0.265 -0.906,0.497 -1.517,0.693 -0.611,0.214 -1.373,0.327 -2.287,0.327 -0.843,0 -1.649,-0.145 -2.413,-0.428 -0.749,-0.277 -1.404,-0.661 -1.965,-1.14 -0.548,-0.466 -0.989,-1.014 -1.316,-1.644 -0.314,-0.611 -0.472,-1.266 -0.472,-1.965 0,-0.681 0.158,-1.247 0.472,-1.714 0.315,-0.466 0.724,-0.869 1.24,-1.222 0.531,-0.327 1.123,-0.617 1.765,-0.869 0.667,-0.246 1.348,-0.498 2.04,-0.743 0.699,-0.252 1.366,-0.536 2.016,-0.851 0.661,-0.296 1.254,-0.661 1.764,-1.09 0.536,-0.434 0.956,-0.963 1.273,-1.593 0.314,-0.611 0.473,-1.361 0.473,-2.236 0,-1.065 -0.222,-2.091 -0.65,-3.087 -0.417,-0.995 -1.021,-1.883 -1.814,-2.658 -0.782,-0.762 -1.726,-1.379 -2.836,-1.845 -1.094,-0.46 -2.323,-0.693 -3.684,-0.693 -1.587,0 -2.935,0.271 -4.025,0.819 -1.077,0.567 -2.009,1.297 -2.789,2.192 l 0.597,0.844 c 0.183,0.264 0.411,0.397 0.674,0.397 0.163,0 0.372,-0.133 0.623,-0.397 0.246,-0.265 0.587,-0.567 1.014,-0.894 0.435,-0.315 0.991,-0.605 1.671,-0.87 0.679,-0.271 1.53,-0.403 2.562,-0.403 0.997,0 1.89,0.157 2.683,0.472 0.813,0.334 1.5,0.782 2.068,1.348 0.579,0.561 1.025,1.21 1.342,1.94 0.314,0.744 0.472,1.531 0.472,2.363 0,0.724 -0.158,1.341 -0.472,1.839 -0.317,0.498 -0.737,0.919 -1.267,1.266 -0.517,0.363 -1.103,0.674 -1.77,0.92 -0.644,0.25 -1.316,0.491 -2.016,0.724 -0.693,0.246 -1.374,0.51 -2.034,0.794 -0.649,0.302 -1.234,0.655 -1.769,1.07 -0.512,0.416 -0.928,0.92 -1.242,1.518 -0.315,0.599 -0.473,1.323 -0.473,2.186 0,0.964 0.208,1.883 0.624,2.765 0.41,0.895 0.995,1.682 1.739,2.362 0.743,0.693 1.631,1.241 2.657,1.638 1.046,0.416 2.186,0.624 3.409,0.624 1.397,0 2.594,-0.214 3.608,-0.649 1.028,-0.428 1.94,-1.077 2.734,-1.94 z"
             style="fill:#ffffff;fill-opacity:1;fill-rule:nonzero;stroke:none"
             id="path214" />
        </g>
        <g
           id="g216"
           transform="translate(629.9165,488.5151)"
           style="fill:#ffffff">
          <path
             d="m 0,0 c -1.179,-0.498 -2.236,-1.103 -3.181,-1.821 -0.952,-0.711 -1.758,-1.505 -2.439,-2.387 -0.667,-0.856 -1.176,-1.795 -1.543,-2.809 -0.364,-1.008 -0.546,-2.06 -0.546,-3.156 0,-1.096 0.188,-2.066 0.572,-2.91 0.377,-0.832 0.876,-1.524 1.493,-2.091 0.612,-0.561 1.31,-0.983 2.085,-1.266 0.8,-0.285 1.613,-0.422 2.437,-0.422 1.027,0 2.022,0.132 2.986,0.397 0.965,0.283 1.871,0.661 2.733,1.139 0.883,0.498 1.708,1.084 2.488,1.745 0.783,0.662 1.5,1.386 2.168,2.161 L 0.176,-0.227 Z m 17.782,-18.33 h -1.914 c -0.417,0 -0.731,0.05 -0.945,0.145 -0.215,0.101 -0.443,0.289 -0.675,0.573 l -3.83,4.724 C 9.643,-13.732 8.806,-14.519 7.911,-15.25 7.01,-15.961 6.06,-16.573 5.046,-17.089 c -1.008,-0.51 -2.072,-0.92 -3.182,-1.216 -1.107,-0.283 -2.26,-0.422 -3.457,-0.422 -1.159,0 -2.256,0.183 -3.283,0.542 -1.025,0.384 -1.933,0.926 -2.707,1.619 -0.763,0.712 -1.368,1.581 -1.821,2.614 -0.449,1.027 -0.667,2.185 -0.667,3.478 0,1.359 0.238,2.638 0.717,3.827 0.485,1.217 1.14,2.319 1.965,3.314 0.831,1.008 1.802,1.896 2.91,2.659 1.115,0.762 2.299,1.392 3.56,1.889 -0.801,1.16 -1.393,2.287 -1.789,3.383 -0.404,1.109 -0.599,2.249 -0.599,3.408 0,1.329 0.221,2.551 0.668,3.678 0.446,1.128 1.077,2.11 1.889,2.936 0.813,0.831 1.782,1.48 2.911,1.94 1.127,0.466 2.373,0.699 3.735,0.699 1.044,0 1.989,-0.176 2.834,-0.523 0.863,-0.346 1.6,-0.838 2.211,-1.467 0.618,-0.612 1.09,-1.355 1.417,-2.211 0.334,-0.864 0.497,-1.808 0.497,-2.841 L 11.589,9.996 c -0.434,-0.081 -0.685,0.107 -0.774,0.573 -0.032,0.479 -0.145,1.002 -0.346,1.562 -0.196,0.586 -0.503,1.116 -0.919,1.594 -0.397,0.498 -0.915,0.907 -1.543,1.222 -0.631,0.328 -1.394,0.498 -2.287,0.498 -1.028,0 -1.966,-0.183 -2.811,-0.548 C 2.079,14.531 1.361,14.027 0.743,13.378 0.152,12.749 -0.316,11.993 -0.649,11.117 -0.977,10.254 -1.146,9.31 -1.146,8.276 c 0,-1.14 0.258,-2.298 0.773,-3.477 C 0.139,3.622 0.894,2.425 1.891,1.215 l 8.779,-10.79 c 0.813,1.21 1.48,2.445 2.016,3.704 0.542,1.279 0.932,2.501 1.166,3.679 0.08,0.416 0.308,0.623 0.674,0.623 h 1.517 c -0.233,-1.562 -0.705,-3.168 -1.417,-4.825 -0.698,-1.644 -1.6,-3.218 -2.714,-4.724 z"
             style="fill:#ffffff;fill-opacity:1;fill-rule:nonzero;stroke:none"
             id="path218" />
        </g>
        <g
           id="g220"
           transform="translate(693.7046,503.292)"
           style="fill:#ffffff">
          <path
             d="m 0,0 h -11.312 l -4.081,-33.107 H -17.85 L -13.776,0 h -11.413 l 0.247,2.085 H 0.253 Z"
             style="fill:#ffffff;fill-opacity:1;fill-rule:nonzero;stroke:none"
             id="path222" />
        </g>
        <g
           id="g224"
           transform="translate(698.1216,486.77)"
           style="fill:#ffffff">
          <path
             d="m 0,0 c 0.681,1.625 1.417,3.036 2.217,4.233 0.813,1.19 1.662,2.135 2.558,2.834 0.912,0.693 1.857,1.128 2.839,1.292 0.977,0.163 1.972,0.05 2.98,-0.347 L 10.172,5.795 C 9.044,6.23 7.974,6.324 6.966,6.098 5.952,5.877 5,5.348 4.107,4.504 3.225,3.672 2.406,2.545 1.644,1.122 0.893,-0.302 0.226,-1.997 -0.372,-3.956 L -1.89,-16.585 h -2.312 l 2.986,24.818 h 1.07 c 0.58,0 0.87,-0.296 0.87,-0.895 z"
             style="fill:#ffffff;fill-opacity:1;fill-rule:nonzero;stroke:none"
             id="path226" />
        </g>
        <g
           id="g228"
           transform="translate(730.8247,492.9873)"
           style="fill:#ffffff">
          <path
             d="m 0,0 c -0.498,0.183 -1.008,0.309 -1.537,0.378 -0.535,0.082 -1.07,0.12 -1.619,0.12 -1.656,0 -3.243,-0.404 -4.749,-1.216 -1.512,-0.813 -2.834,-1.903 -3.981,-3.257 -1.146,-1.36 -2.053,-2.922 -2.734,-4.68 -0.68,-1.757 -1.02,-3.577 -1.02,-5.467 0,-2.224 0.371,-3.956 1.121,-5.203 0.762,-1.222 1.94,-1.84 3.528,-1.84 0.945,0 1.877,0.265 2.783,0.801 0.914,0.529 1.783,1.272 2.615,2.236 0.844,0.962 1.631,2.116 2.362,3.458 0.731,1.36 1.386,2.859 1.965,4.497 z m -1.612,-14.198 c -0.63,-1.329 -1.329,-2.545 -2.092,-3.659 -0.743,-1.09 -1.549,-2.029 -2.412,-2.81 -0.863,-0.774 -1.764,-1.386 -2.709,-1.814 -0.945,-0.428 -1.927,-0.649 -2.935,-0.649 -1.027,0 -1.94,0.202 -2.734,0.599 -0.781,0.415 -1.436,0.995 -1.965,1.744 -0.517,0.744 -0.907,1.644 -1.171,2.709 -0.265,1.058 -0.397,2.255 -0.397,3.578 0,1.442 0.182,2.853 0.548,4.232 0.377,1.393 0.9,2.709 1.562,3.95 0.667,1.246 1.461,2.394 2.394,3.433 0.925,1.046 1.952,1.952 3.08,2.715 1.127,0.762 2.33,1.36 3.609,1.789 1.272,0.428 2.595,0.649 3.949,0.649 0.983,0 1.903,-0.095 2.765,-0.278 C 0.756,1.827 1.613,1.53 2.438,1.096 l -2.91,-23.898 h -1.14 c -0.334,0 -0.555,0.088 -0.674,0.271 -0.114,0.182 -0.171,0.39 -0.171,0.623 z"
             style="fill:#ffffff;fill-opacity:1;fill-rule:nonzero;stroke:none"
             id="path230" />
        </g>
        <g
           id="g232"
           transform="translate(746.8052,486.978)"
           style="fill:#ffffff">
          <path
             d="m 0,0 c 0.667,1.31 1.405,2.482 2.217,3.508 0.825,1.046 1.695,1.922 2.608,2.634 0.913,0.717 1.852,1.253 2.809,1.618 0.964,0.385 1.934,0.573 2.91,0.573 1.065,0 1.966,-0.208 2.715,-0.623 C 14.021,7.294 14.626,6.689 15.073,5.896 15.54,5.102 15.835,4.12 15.968,2.96 16.119,1.814 16.1,0.504 15.917,-0.97 L 14.053,-16.787 H 11.716 L 13.581,-0.97 C 13.864,1.386 13.707,3.193 13.108,4.453 12.51,5.713 11.395,6.343 9.75,6.343 8.825,6.343 7.886,6.104 6.941,5.625 6.009,5.159 5.102,4.485 4.208,3.609 3.326,2.747 2.494,1.694 1.72,0.447 0.938,-0.781 0.252,-2.161 -0.347,-3.704 l -1.517,-13.083 h -2.337 l 2.96,24.825 h 1.071 c 0.58,0 0.869,-0.303 0.869,-0.901 z"
             style="fill:#ffffff;fill-opacity:1;fill-rule:nonzero;stroke:none"
             id="path234" />
        </g>
        <g
           id="g236"
           transform="translate(788.2144,491.8911)"
           style="fill:#ffffff">
          <path
             d="m 0,0 c -0.132,-0.233 -0.315,-0.346 -0.548,-0.346 -0.164,0 -0.372,0.1 -0.618,0.296 -0.232,0.214 -0.554,0.447 -0.97,0.699 -0.396,0.265 -0.906,0.497 -1.517,0.693 -0.618,0.214 -1.38,0.327 -2.287,0.327 -0.851,0 -1.65,-0.145 -2.413,-0.428 -0.749,-0.277 -1.404,-0.661 -1.965,-1.14 -0.548,-0.466 -0.989,-1.014 -1.323,-1.644 -0.315,-0.611 -0.472,-1.266 -0.472,-1.965 0,-0.681 0.157,-1.247 0.472,-1.714 0.315,-0.466 0.731,-0.869 1.247,-1.222 0.53,-0.327 1.122,-0.617 1.764,-0.869 0.662,-0.246 1.342,-0.498 2.041,-0.743 0.699,-0.252 1.367,-0.536 2.016,-0.851 0.661,-0.296 1.253,-0.661 1.763,-1.09 0.53,-0.434 0.952,-0.963 1.267,-1.593 0.314,-0.611 0.472,-1.361 0.472,-2.236 0,-1.065 -0.214,-2.091 -0.642,-3.087 -0.416,-0.995 -1.021,-1.883 -1.814,-2.658 -0.782,-0.762 -1.726,-1.379 -2.841,-1.845 -1.09,-0.46 -2.319,-0.693 -3.679,-0.693 -1.594,0 -2.935,0.271 -4.031,0.819 -1.077,0.567 -2.003,1.297 -2.784,2.192 l 0.598,0.844 c 0.183,0.264 0.41,0.397 0.674,0.397 0.164,0 0.372,-0.133 0.617,-0.397 0.252,-0.265 0.593,-0.567 1.021,-0.894 0.434,-0.315 0.989,-0.605 1.669,-0.87 0.68,-0.271 1.531,-0.403 2.557,-0.403 0.996,0 1.896,0.157 2.69,0.472 0.812,0.334 1.499,0.782 2.066,1.348 0.579,0.561 1.027,1.21 1.342,1.94 0.315,0.744 0.472,1.531 0.472,2.363 0,0.724 -0.157,1.341 -0.472,1.839 -0.315,0.498 -0.737,0.919 -1.273,1.266 -0.51,0.363 -1.102,0.674 -1.764,0.92 -0.648,0.25 -1.316,0.491 -2.015,0.724 -0.693,0.246 -1.373,0.51 -2.035,0.794 -0.648,0.302 -1.241,0.655 -1.769,1.07 -0.511,0.416 -0.927,0.92 -1.242,1.518 -0.315,0.599 -0.472,1.323 -0.472,2.186 0,0.964 0.208,1.883 0.617,2.765 0.416,0.895 0.996,1.682 1.745,2.362 0.743,0.693 1.631,1.241 2.658,1.638 1.046,0.416 2.18,0.624 3.408,0.624 1.392,0 2.595,-0.214 3.609,-0.649 1.027,-0.428 1.94,-1.077 2.734,-1.94 z"
             style="fill:#ffffff;fill-opacity:1;fill-rule:nonzero;stroke:none"
             id="path238" />
        </g>
        <g
           id="g240"
           transform="translate(800.0059,475.2871)"
           style="fill:#ffffff">
          <path
             d="m 0,0 c 0.73,-1.304 1.625,-2.229 2.689,-2.759 1.059,-0.529 2.161,-0.793 3.308,-0.793 1.045,0 2.015,0.207 2.91,0.623 0.913,0.429 1.732,1.008 2.462,1.739 0.744,0.731 1.399,1.574 1.965,2.538 0.58,0.976 1.059,2.003 1.443,3.08 0.397,1.077 0.693,2.179 0.894,3.307 0.215,1.147 0.322,2.255 0.322,3.332 0,2.224 -0.422,3.95 -1.266,5.178 -0.844,1.241 -2.079,1.864 -3.704,1.864 -0.945,0 -1.902,-0.264 -2.86,-0.793 C 7.212,16.78 6.305,16.037 5.423,15.073 4.548,14.11 3.716,12.951 2.935,11.59 2.16,10.249 1.467,8.75 0.875,7.093 Z m 1.272,11.048 c 0.643,1.342 1.367,2.558 2.161,3.654 0.812,1.109 1.669,2.053 2.564,2.834 0.894,0.794 1.833,1.411 2.809,1.839 0.976,0.435 1.971,0.649 2.986,0.649 1.077,0 2.021,-0.208 2.834,-0.623 0.812,-0.416 1.493,-1.002 2.041,-1.764 0.548,-0.749 0.963,-1.657 1.241,-2.734 0.283,-1.083 0.422,-2.28 0.422,-3.609 0,-1.278 -0.133,-2.576 -0.397,-3.907 C 17.668,6.079 17.291,4.8 16.792,3.561 16.308,2.331 15.709,1.172 14.998,0.076 14.305,-1.014 13.505,-1.972 12.61,-2.784 11.716,-3.597 10.733,-4.239 9.65,-4.724 8.591,-5.184 7.464,-5.417 6.267,-5.417 c -1.341,0 -2.582,0.296 -3.729,0.895 -1.127,0.598 -2.047,1.474 -2.759,2.632 l -1.467,-11.961 h -2.287 l 4.076,33.58 h 1.07 c 0.58,0 0.87,-0.303 0.87,-0.901 z"
             style="fill:#ffffff;fill-opacity:1;fill-rule:nonzero;stroke:none"
             id="path242" />
        </g>
        <g
           id="g244"
           transform="translate(836.3628,471.7285)"
           style="fill:#ffffff">
          <path
             d="m 0,0 c 1.443,0 2.753,0.372 3.924,1.115 1.197,0.763 2.218,1.768 3.062,3.01 0.844,1.26 1.493,2.697 1.94,4.303 0.466,1.625 0.699,3.294 0.699,5.001 0,2.652 -0.592,4.693 -1.77,6.116 -1.178,1.424 -2.81,2.136 -4.9,2.136 -1.443,0 -2.76,-0.372 -3.95,-1.115 -1.178,-0.75 -2.192,-1.745 -3.036,-2.986 -0.832,-1.228 -1.474,-2.645 -1.94,-4.252 C -6.437,11.722 -6.67,10.047 -6.67,8.302 -6.67,5.669 -6.084,3.622 -4.926,2.16 -3.748,0.718 -2.11,0 0,0 m -0.201,-1.871 c -1.329,0 -2.539,0.233 -3.629,0.699 -1.083,0.466 -2.009,1.134 -2.79,2.016 -0.762,0.876 -1.354,1.94 -1.789,3.181 -0.416,1.26 -0.623,2.691 -0.623,4.277 0,2.009 0.302,3.93 0.9,5.77 0.592,1.839 1.43,3.464 2.507,4.875 1.096,1.411 2.388,2.532 3.88,3.357 1.493,0.844 3.137,1.273 4.926,1.273 1.329,0 2.526,-0.233 3.61,-0.7 1.089,-0.466 2.022,-1.133 2.784,-2.015 0.774,-0.876 1.373,-1.946 1.788,-3.206 0.429,-1.247 0.649,-2.646 0.649,-4.202 0,-2.009 -0.308,-3.93 -0.919,-5.769 C 10.494,5.839 9.656,4.208 8.579,2.784 7.502,1.373 6.217,0.246 4.724,-0.599 3.231,-1.442 1.587,-1.871 -0.201,-1.871"
             style="fill:#ffffff;fill-opacity:1;fill-rule:nonzero;stroke:none"
             id="path246" />
        </g>
        <g
           id="g248"
           transform="translate(861.8105,486.77)"
           style="fill:#ffffff">
          <path
             d="M 0,0 C 0.68,1.625 1.417,3.036 2.217,4.233 3.03,5.423 3.88,6.368 4.774,7.067 5.688,7.76 6.633,8.195 7.609,8.359 8.592,8.522 9.587,8.409 10.595,8.012 L 10.173,5.795 C 9.045,6.23 7.975,6.324 6.967,6.098 5.953,5.877 5.001,5.348 4.107,4.504 3.225,3.672 2.406,2.545 1.644,1.122 0.895,-0.302 0.227,-1.997 -0.372,-3.956 L -1.89,-16.585 h -2.311 l 2.985,24.818 h 1.065 c 0.586,0 0.875,-0.296 0.875,-0.895 z"
             style="fill:#ffffff;fill-opacity:1;fill-rule:nonzero;stroke:none"
             id="path250" />
        </g>
        <g
           id="g252"
           transform="translate(880.3799,474.3359)"
           style="fill:#ffffff">
          <path
             d="m 0,0 v 0.372 c 0.019,0.151 0.038,0.378 0.05,0.674 0.032,0.296 0.076,0.68 0.126,1.146 0.051,0.479 0.126,1.083 0.22,1.814 l 1.695,14.053 h -3.257 c -0.169,0 -0.302,0.05 -0.403,0.145 -0.094,0.101 -0.132,0.239 -0.094,0.422 l 0.12,0.926 3.905,0.296 1.644,8.856 c 0.032,0.145 0.107,0.277 0.221,0.397 0.119,0.113 0.258,0.17 0.428,0.17 h 1.14 L 4.629,19.823 h 7.163 L 11.59,18.059 H 4.428 L 2.715,4.082 C 2.626,3.401 2.557,2.847 2.488,2.413 2.438,1.984 2.4,1.625 2.362,1.342 2.349,1.077 2.331,0.884 2.312,0.75 V 0.447 c 0,-1.077 0.251,-1.858 0.749,-2.337 0.51,-0.478 1.166,-0.717 1.965,-0.717 0.548,0 1.027,0.081 1.443,0.245 0.428,0.183 0.8,0.372 1.114,0.573 0.322,0.214 0.574,0.403 0.775,0.574 0.196,0.182 0.347,0.27 0.448,0.27 0.163,0 0.289,-0.081 0.371,-0.245 L 9.625,-2.236 C 8.963,-2.935 8.157,-3.496 7.212,-3.93 6.267,-4.346 5.322,-4.548 4.377,-4.548 c -1.36,0 -2.424,0.372 -3.206,1.115 C 0.409,-2.683 0.019,-1.543 0,0"
             style="fill:#ffffff;fill-opacity:1;fill-rule:nonzero;stroke:none"
             id="path254" />
        </g>
        <g
           id="g256"
           transform="translate(917.4614,492.9873)"
           style="fill:#ffffff">
          <path
             d="m 0,0 c -0.498,0.183 -1.014,0.309 -1.543,0.378 -0.529,0.082 -1.071,0.12 -1.619,0.12 -1.657,0 -3.238,-0.404 -4.75,-1.216 -1.511,-0.813 -2.834,-1.903 -3.981,-3.257 -1.14,-1.36 -2.053,-2.922 -2.733,-4.68 -0.681,-1.757 -1.02,-3.577 -1.02,-5.467 0,-2.224 0.371,-3.956 1.121,-5.203 0.762,-1.222 1.94,-1.84 3.527,-1.84 0.945,0 1.877,0.265 2.79,0.801 0.908,0.529 1.783,1.272 2.608,2.236 0.844,0.962 1.631,2.116 2.362,3.458 0.731,1.36 1.386,2.859 1.966,4.497 z m -1.619,-14.198 c -0.63,-1.329 -1.329,-2.545 -2.091,-3.659 -0.744,-1.09 -1.55,-2.029 -2.413,-2.81 -0.862,-0.774 -1.763,-1.386 -2.708,-1.814 -0.945,-0.428 -1.921,-0.649 -2.936,-0.649 -1.026,0 -1.94,0.202 -2.733,0.599 -0.781,0.415 -1.437,0.995 -1.965,1.744 -0.517,0.744 -0.908,1.644 -1.172,2.709 -0.264,1.058 -0.397,2.255 -0.397,3.578 0,1.442 0.183,2.853 0.548,4.232 0.378,1.393 0.901,2.709 1.569,3.95 0.661,1.246 1.455,2.394 2.387,3.433 0.926,1.046 1.952,1.952 3.08,2.715 1.128,0.762 2.331,1.36 3.609,1.789 1.273,0.428 2.595,0.649 3.956,0.649 0.976,0 1.896,-0.095 2.759,-0.278 C 0.75,1.827 1.606,1.53 2.438,1.096 l -2.911,-23.898 h -1.146 c -0.334,0 -0.554,0.088 -0.674,0.271 -0.113,0.182 -0.17,0.39 -0.17,0.623 z"
             style="fill:#ffffff;fill-opacity:1;fill-rule:nonzero;stroke:none"
             id="path258" />
        </g>
        <g
           id="g260"
           transform="translate(931.0103,474.3359)"
           style="fill:#ffffff">
          <path
             d="m 0,0 v 0.372 c 0.019,0.151 0.038,0.378 0.051,0.674 0.037,0.296 0.075,0.68 0.126,1.146 0.05,0.479 0.126,1.083 0.226,1.814 l 1.688,14.053 h -3.256 c -0.164,0 -0.296,0.05 -0.397,0.145 -0.101,0.101 -0.132,0.239 -0.101,0.422 l 0.126,0.926 3.905,0.296 1.638,8.856 c 0.032,0.145 0.107,0.277 0.227,0.397 0.113,0.113 0.252,0.17 0.422,0.17 h 1.14 L 4.63,19.823 h 7.162 L 11.59,18.059 H 4.428 L 2.715,4.082 C 2.633,3.401 2.558,2.847 2.488,2.413 2.438,1.984 2.4,1.625 2.368,1.342 2.35,1.077 2.331,0.884 2.318,0.75 V 0.447 c 0,-1.077 0.245,-1.858 0.744,-2.337 0.516,-0.478 1.171,-0.717 1.964,-0.717 0.548,0 1.027,0.081 1.443,0.245 0.428,0.183 0.806,0.372 1.121,0.573 0.315,0.214 0.573,0.403 0.768,0.574 0.203,0.182 0.347,0.27 0.448,0.27 0.17,0 0.29,-0.081 0.372,-0.245 L 9.625,-2.236 C 8.963,-2.935 8.163,-3.496 7.212,-3.93 6.268,-4.346 5.322,-4.548 4.378,-4.548 3.023,-4.548 1.953,-4.176 1.172,-3.433 0.409,-2.683 0.019,-1.543 0,0"
             style="fill:#ffffff;fill-opacity:1;fill-rule:nonzero;stroke:none"
             id="path262" />
        </g>
        <g
           id="g264"
           transform="translate(956.4644,494.9399)"
           style="fill:#ffffff">
          <path
             d="M 0,0 -3.011,-24.749 H -5.323 L -2.312,0 Z M 1.814,8.529 C 1.814,8.232 1.751,7.949 1.619,7.685 1.499,7.433 1.342,7.212 1.146,7.011 0.944,6.815 0.712,6.658 0.447,6.538 0.201,6.425 -0.057,6.362 -0.321,6.362 c -0.284,0 -0.548,0.063 -0.8,0.176 -0.246,0.12 -0.46,0.277 -0.643,0.473 -0.182,0.201 -0.334,0.422 -0.447,0.674 -0.12,0.264 -0.177,0.547 -0.177,0.844 0,0.296 0.057,0.579 0.177,0.844 0.113,0.264 0.265,0.497 0.447,0.699 0.196,0.214 0.422,0.378 0.668,0.497 0.252,0.114 0.516,0.171 0.8,0.171 0.264,0 0.516,-0.057 0.768,-0.171 C 0.737,10.45 0.97,10.292 1.171,10.097 1.367,9.896 1.524,9.656 1.644,9.373 1.757,9.108 1.814,8.825 1.814,8.529"
             style="fill:#ffffff;fill-opacity:1;fill-rule:nonzero;stroke:none"
             id="path266" />
        </g>
        <g
           id="g268"
           transform="translate(974.9893,471.7285)"
           style="fill:#ffffff">
          <path
             d="m 0,0 c 1.442,0 2.752,0.372 3.93,1.115 1.197,0.763 2.218,1.768 3.062,3.01 0.843,1.26 1.493,2.697 1.94,4.303 0.466,1.625 0.699,3.294 0.699,5.001 0,2.652 -0.592,4.693 -1.77,6.116 -1.178,1.424 -2.809,2.136 -4.901,2.136 -1.442,0 -2.758,-0.372 -3.949,-1.115 -1.178,-0.75 -2.192,-1.745 -3.036,-2.986 -0.831,-1.228 -1.474,-2.645 -1.94,-4.252 -0.466,-1.606 -0.7,-3.281 -0.7,-5.026 0,-2.633 0.581,-4.68 1.746,-6.142 C -3.742,0.718 -2.104,0 0,0 m -0.195,-1.871 c -1.329,0 -2.539,0.233 -3.635,0.699 -1.077,0.466 -2.003,1.134 -2.784,2.016 -0.762,0.876 -1.36,1.94 -1.789,3.181 -0.416,1.26 -0.623,2.691 -0.623,4.277 0,2.009 0.302,3.93 0.894,5.77 0.598,1.839 1.436,3.464 2.513,4.875 1.096,1.411 2.388,2.532 3.88,3.357 1.493,0.844 3.137,1.273 4.926,1.273 1.323,0 2.526,-0.233 3.604,-0.7 1.095,-0.466 2.027,-1.133 2.79,-2.015 0.774,-0.876 1.373,-1.946 1.789,-3.206 0.428,-1.247 0.648,-2.646 0.648,-4.202 0,-2.009 -0.309,-3.93 -0.926,-5.769 C 10.5,5.839 9.663,4.208 8.585,2.784 7.508,1.373 6.223,0.246 4.73,-0.599 3.238,-1.442 1.593,-1.871 -0.195,-1.871"
             style="fill:#ffffff;fill-opacity:1;fill-rule:nonzero;stroke:none"
             id="path270" />
        </g>
        <g
           id="g272"
           transform="translate(1000.4868,486.978)"
           style="fill:#ffffff">
          <path
             d="m 0,0 c 0.662,1.31 1.398,2.482 2.211,3.508 0.832,1.046 1.701,1.922 2.614,2.634 0.907,0.717 1.846,1.253 2.81,1.618 0.957,0.385 1.927,0.573 2.91,0.573 1.058,0 1.965,-0.208 2.708,-0.623 C 14.016,7.294 14.62,6.689 15.067,5.896 15.533,5.102 15.83,4.12 15.962,2.96 16.113,1.814 16.094,0.504 15.918,-0.97 L 14.047,-16.787 H 11.71 L 13.574,-0.97 C 13.858,1.386 13.7,3.193 13.102,4.453 12.51,5.713 11.389,6.343 9.745,6.343 8.819,6.343 7.88,6.104 6.936,5.625 6.01,5.159 5.096,4.485 4.202,3.609 3.32,2.747 2.495,1.694 1.714,0.447 0.933,-0.781 0.246,-2.161 -0.353,-3.704 L -1.87,-16.787 h -2.337 l 2.96,24.825 h 1.071 c 0.579,0 0.869,-0.303 0.869,-0.901 z"
             style="fill:#ffffff;fill-opacity:1;fill-rule:nonzero;stroke:none"
             id="path274" />
        </g>
        <g
           id="g276"
           transform="translate(413.7505,614.4614)"
           style="fill:#ffffff">
          <path
             d="m 0,0 h -16.44 v -84.248 h 13.543 v 34.084 H 0 c 14.021,0 33.605,2.06 33.605,25.144 C 33.605,-2.053 14.021,0 0,0 m 3.383,-38.317 h -6.28 v 20.189 l -8.824,6.279 H 3.383 c 7.137,0 16.68,-1.082 16.68,-13.171 0,-12.207 -9.543,-13.297 -16.68,-13.297"
             style="fill:#ffffff;fill-opacity:1;fill-rule:nonzero;stroke:none"
             id="path278" />
        </g>
        <g
           id="g280"
           transform="translate(506.9751,615.6646)"
           style="fill:#ffffff">
          <path
             d="m 0,0 c -24.9,0 -45.087,-19.344 -45.087,-43.393 0,-23.936 20.187,-43.274 45.087,-43.274 25.019,0 45.207,19.338 45.207,43.274 C 45.207,-19.337 25.019,0 0,0 m 0,-74.817 c -17.53,0 -31.791,14.14 -31.791,31.424 0,17.404 14.261,31.546 31.791,31.546 17.643,0 31.91,-14.142 31.91,-31.546 0,-17.284 -14.267,-31.424 -31.91,-31.424"
             style="fill:#ffffff;fill-opacity:1;fill-rule:nonzero;stroke:none"
             id="path282" />
        </g>
        <g
           id="g284"
           transform="translate(561.0884,614.4614)"
           style="fill:#ffffff">
          <path
             d="M 0,0 V -11.849 H 19.823 V -84.248 H 33.36 v 66.114 l -8.707,6.285 H 53.301 V 0 Z"
             style="fill:#ffffff;fill-opacity:1;fill-rule:nonzero;stroke:none"
             id="path286" />
        </g>
        <g
           id="g288"
           transform="translate(678.8716,614.4614)"
           style="fill:#ffffff">
          <path
             d="M 0,0 H -47.986 V -84.248 H 0 v 11.849 h -34.449 v 28.282 h 31.426 v 11.841 h -31.426 v 13.298 l -9.787,7.129 H 0 Z"
             style="fill:#ffffff;fill-opacity:1;fill-rule:nonzero;stroke:none"
             id="path290" />
        </g>
        <g
           id="g292"
           transform="translate(762.061,555.7236)"
           style="fill:#ffffff">
          <path
             d="m 0,0 -48.955,49.8 -8.825,8.944 -4.711,4.957 v -89.205 h 13.536 V 33.215 L 0,-16.584 l 8.825,-8.945 4.712,-4.957 V 58.718 H 0 Z"
             style="fill:#ffffff;fill-opacity:1;fill-rule:nonzero;stroke:none"
             id="path294" />
        </g>
        <g
           id="g296"
           transform="translate(795.1807,572.2842)"
           style="fill:#ffffff">
          <path
             d="m 0,0 c 0,-23.93 20.182,-43.273 45.082,-43.273 8.459,0 16.32,2.179 23.085,6.046 v 15.59 c -5.801,-6.041 -14.021,-9.788 -23.085,-9.788 -17.524,0 -31.785,14.141 -31.785,31.425 0,17.404 14.261,31.544 31.785,31.544 9.064,0 17.284,-3.741 23.085,-9.788 v 15.59 C 61.402,41.219 53.541,43.393 45.082,43.393 20.182,43.393 0,24.055 0,0"
             style="fill:#ffffff;fill-opacity:1;fill-rule:nonzero;stroke:none"
             id="path298" />
        </g>
        <path
           d="m 883.548,614.461 h 13.538 v -84.248 h -13.538 z"
           style="fill:#ffffff;fill-opacity:1;fill-rule:nonzero;stroke:none"
           id="path300" />
        <g
           id="g302"
           transform="translate(964.4829,618.3345)"
           style="fill:#ffffff">
          <path
             d="m 0,0 c -0.202,0.006 -0.447,0 -0.542,-0.011 -0.095,-0.02 -0.27,-0.058 -0.391,-0.089 -0.119,-0.039 -0.321,-0.112 -0.453,-0.171 -0.126,-0.063 -0.315,-0.169 -0.416,-0.232 -0.1,-0.069 -0.29,-0.227 -0.416,-0.347 -0.119,-0.119 -0.277,-0.296 -0.346,-0.39 -0.069,-0.095 -11.08,-18.663 -24.471,-41.264 -13.385,-22.601 -24.421,-41.22 -24.509,-41.378 -0.095,-0.157 -0.208,-0.39 -0.258,-0.516 -0.045,-0.12 -0.114,-0.353 -0.145,-0.517 -0.051,-0.239 -0.057,-0.359 -0.044,-0.668 0.006,-0.27 0.031,-0.453 0.088,-0.654 0.038,-0.152 0.119,-0.391 0.182,-0.523 0.063,-0.139 0.183,-0.347 0.265,-0.466 0.088,-0.12 0.252,-0.316 0.372,-0.435 0.119,-0.12 0.283,-0.258 0.365,-0.321 0.082,-0.057 0.277,-0.164 0.435,-0.246 0.163,-0.075 0.422,-0.176 0.579,-0.22 l 0.284,-0.082 h 17.416 l 21.517,36.314 c 11.842,19.979 21.517,36.338 21.51,36.362 -0.005,0.026 -1.926,3.283 -4.27,7.239 -2.343,3.962 -4.314,7.273 -4.384,7.368 -0.069,0.096 -0.233,0.278 -0.365,0.404 -0.132,0.126 -0.316,0.283 -0.41,0.34 -0.088,0.063 -0.277,0.163 -0.409,0.228 -0.132,0.063 -0.372,0.143 -0.523,0.189 -0.208,0.049 -0.378,0.075 -0.655,0.082 z m 14.613,-21.888 c -0.019,0.013 -0.069,-0.05 -0.132,-0.146 -0.05,-0.093 -8.932,-15.071 -19.728,-33.295 -10.796,-18.222 -19.634,-33.145 -19.64,-33.164 -0.013,-0.037 1.354,-0.044 9.033,-0.044 h 9.051 l 15.224,25.701 c 8.378,14.127 15.225,25.699 15.219,25.711 0,0.013 -2.029,3.439 -4.504,7.616 -2.476,4.175 -4.51,7.608 -4.523,7.621 m 12.592,-21.264 c -0.007,0 -6.041,-10.161 -13.398,-22.582 C 6.45,-78.156 0.396,-88.367 0.359,-88.429 l -0.063,-0.108 18.128,0.013 8.919,15.048 8.913,15.055 -0.031,0.063 c -0.019,0.037 -2.054,3.469 -4.517,7.633 -2.469,4.163 -4.497,7.573 -4.503,7.573 m 12.604,-21.279 c -0.006,0 -3.225,-5.417 -7.143,-12.036 -3.924,-6.615 -7.131,-12.044 -7.131,-12.051 0,-0.012 5.329,-0.019 11.842,-0.012 l 11.849,0.006 0.182,0.05 c 0.108,0.026 0.259,0.076 0.347,0.101 0.088,0.032 0.265,0.107 0.391,0.177 0.125,0.063 0.308,0.17 0.402,0.239 0.095,0.076 0.265,0.22 0.372,0.328 0.107,0.107 0.258,0.296 0.34,0.409 0.076,0.12 0.196,0.321 0.259,0.46 0.063,0.132 0.151,0.371 0.189,0.523 0.068,0.245 0.075,0.34 0.075,0.743 0.006,0.378 -0.007,0.504 -0.056,0.705 -0.032,0.133 -0.108,0.347 -0.158,0.473 -0.057,0.132 -2.721,4.654 -5.921,10.06 -3.2,5.403 -5.833,9.825 -5.839,9.825"
             style="fill:#ffffff;fill-opacity:1;fill-rule:nonzero;stroke:none"
             id="path304" />
        </g>
      </g>
    </g>
  </g>
</svg>
