<?xml version="1.0" encoding="UTF-8" standalone="no"?>
<!-- Created with Inkscape (http://www.inkscape.org/) -->

<svg
   version="1.1"
   id="svg148"
   width="825.27563"
   height="125.58266"
   viewBox="0 0 825.27562 125.58265"
   sodipodi:docname="logoname.svg"
   xmlns:inkscape="http://www.inkscape.org/namespaces/inkscape"
   xmlns:sodipodi="http://sodipodi.sourceforge.net/DTD/sodipodi-0.dtd"
   xmlns="http://www.w3.org/2000/svg"
   xmlns:svg="http://www.w3.org/2000/svg">
  <defs
     id="defs152">
    <clipPath
       clipPathUnits="userSpaceOnUse"
       id="clipPath182">
      <path
         d="M 0,1080 H 1413.02 V 0 H 0 Z"
         id="path180" />
    </clipPath>
  </defs>
  <sodipodi:namedview
     id="namedview150"
     pagecolor="#505050"
     bordercolor="#ffffff"
     borderopacity="1"
     inkscape:showpageshadow="0"
     inkscape:pageopacity="0"
     inkscape:pagecheckerboard="1"
     inkscape:deskcolor="#505050"
     showgrid="false" />
  <g
     id="g156"
     inkscape:groupmode="layer"
     inkscape:label="Page 1"
     transform="matrix(1.3333333,0,0,-1.3333333,-529.74732,825.89945)">
    <g
       id="g176"
       style="fill:#ffffff">
      <g
         id="g178"
         clip-path="url(#clipPath182)"
         style="fill:#ffffff">
        <g
           id="g276"
           transform="translate(413.7505,614.4614)"
           style="fill:#ffffff">
          <path
             d="m 0,0 h -16.44 v -84.248 h 13.543 v 34.084 H 0 c 14.021,0 33.605,2.06 33.605,25.144 C 33.605,-2.053 14.021,0 0,0 m 3.383,-38.317 h -6.28 v 20.189 l -8.824,6.279 H 3.383 c 7.137,0 16.68,-1.082 16.68,-13.171 0,-12.207 -9.543,-13.297 -16.68,-13.297"
             style="fill:#ffffff;fill-opacity:1;fill-rule:nonzero;stroke:none"
             id="path278" />
        </g>
        <g
           id="g280"
           transform="translate(506.9751,615.6646)"
           style="fill:#ffffff">
          <path
             d="m 0,0 c -24.9,0 -45.087,-19.344 -45.087,-43.393 0,-23.936 20.187,-43.274 45.087,-43.274 25.019,0 45.207,19.338 45.207,43.274 C 45.207,-19.337 25.019,0 0,0 m 0,-74.817 c -17.53,0 -31.791,14.14 -31.791,31.424 0,17.404 14.261,31.546 31.791,31.546 17.643,0 31.91,-14.142 31.91,-31.546 0,-17.284 -14.267,-31.424 -31.91,-31.424"
             style="fill:#ffffff;fill-opacity:1;fill-rule:nonzero;stroke:none"
             id="path282" />
        </g>
        <g
           id="g284"
           transform="translate(561.0884,614.4614)"
           style="fill:#ffffff">
          <path
             d="M 0,0 V -11.849 H 19.823 V -84.248 H 33.36 v 66.114 l -8.707,6.285 H 53.301 V 0 Z"
             style="fill:#ffffff;fill-opacity:1;fill-rule:nonzero;stroke:none"
             id="path286" />
        </g>
        <g
           id="g288"
           transform="translate(678.8716,614.4614)"
           style="fill:#ffffff">
          <path
             d="M 0,0 H -47.986 V -84.248 H 0 v 11.849 h -34.449 v 28.282 h 31.426 v 11.841 h -31.426 v 13.298 l -9.787,7.129 H 0 Z"
             style="fill:#ffffff;fill-opacity:1;fill-rule:nonzero;stroke:none"
             id="path290" />
        </g>
        <g
           id="g292"
           transform="translate(762.061,555.7236)"
           style="fill:#ffffff">
          <path
             d="m 0,0 -48.955,49.8 -8.825,8.944 -4.711,4.957 v -89.205 h 13.536 V 33.215 L 0,-16.584 l 8.825,-8.945 4.712,-4.957 V 58.718 H 0 Z"
             style="fill:#ffffff;fill-opacity:1;fill-rule:nonzero;stroke:none"
             id="path294" />
        </g>
        <g
           id="g296"
           transform="translate(795.1807,572.2842)"
           style="fill:#ffffff">
          <path
             d="m 0,0 c 0,-23.93 20.182,-43.273 45.082,-43.273 8.459,0 16.32,2.179 23.085,6.046 v 15.59 c -5.801,-6.041 -14.021,-9.788 -23.085,-9.788 -17.524,0 -31.785,14.141 -31.785,31.425 0,17.404 14.261,31.544 31.785,31.544 9.064,0 17.284,-3.741 23.085,-9.788 v 15.59 C 61.402,41.219 53.541,43.393 45.082,43.393 20.182,43.393 0,24.055 0,0"
             style="fill:#ffffff;fill-opacity:1;fill-rule:nonzero;stroke:none"
             id="path298" />
        </g>
        <path
           d="m 883.548,614.461 h 13.538 v -84.248 h -13.538 z"
           style="fill:#ffffff;fill-opacity:1;fill-rule:nonzero;stroke:none"
           id="path300" />
        <g
           id="g302"
           transform="translate(964.4829,618.3345)"
           style="fill:#ffffff">
          <path
             d="m 0,0 c -0.202,0.006 -0.447,0 -0.542,-0.011 -0.095,-0.02 -0.27,-0.058 -0.391,-0.089 -0.119,-0.039 -0.321,-0.112 -0.453,-0.171 -0.126,-0.063 -0.315,-0.169 -0.416,-0.232 -0.1,-0.069 -0.29,-0.227 -0.416,-0.347 -0.119,-0.119 -0.277,-0.296 -0.346,-0.39 -0.069,-0.095 -11.08,-18.663 -24.471,-41.264 -13.385,-22.601 -24.421,-41.22 -24.509,-41.378 -0.095,-0.157 -0.208,-0.39 -0.258,-0.516 -0.045,-0.12 -0.114,-0.353 -0.145,-0.517 -0.051,-0.239 -0.057,-0.359 -0.044,-0.668 0.006,-0.27 0.031,-0.453 0.088,-0.654 0.038,-0.152 0.119,-0.391 0.182,-0.523 0.063,-0.139 0.183,-0.347 0.265,-0.466 0.088,-0.12 0.252,-0.316 0.372,-0.435 0.119,-0.12 0.283,-0.258 0.365,-0.321 0.082,-0.057 0.277,-0.164 0.435,-0.246 0.163,-0.075 0.422,-0.176 0.579,-0.22 l 0.284,-0.082 h 17.416 l 21.517,36.314 c 11.842,19.979 21.517,36.338 21.51,36.362 -0.005,0.026 -1.926,3.283 -4.27,7.239 -2.343,3.962 -4.314,7.273 -4.384,7.368 -0.069,0.096 -0.233,0.278 -0.365,0.404 -0.132,0.126 -0.316,0.283 -0.41,0.34 -0.088,0.063 -0.277,0.163 -0.409,0.228 -0.132,0.063 -0.372,0.143 -0.523,0.189 -0.208,0.049 -0.378,0.075 -0.655,0.082 z m 14.613,-21.888 c -0.019,0.013 -0.069,-0.05 -0.132,-0.146 -0.05,-0.093 -8.932,-15.071 -19.728,-33.295 -10.796,-18.222 -19.634,-33.145 -19.64,-33.164 -0.013,-0.037 1.354,-0.044 9.033,-0.044 h 9.051 l 15.224,25.701 c 8.378,14.127 15.225,25.699 15.219,25.711 0,0.013 -2.029,3.439 -4.504,7.616 -2.476,4.175 -4.51,7.608 -4.523,7.621 m 12.592,-21.264 c -0.007,0 -6.041,-10.161 -13.398,-22.582 C 6.45,-78.156 0.396,-88.367 0.359,-88.429 l -0.063,-0.108 18.128,0.013 8.919,15.048 8.913,15.055 -0.031,0.063 c -0.019,0.037 -2.054,3.469 -4.517,7.633 -2.469,4.163 -4.497,7.573 -4.503,7.573 m 12.604,-21.279 c -0.006,0 -3.225,-5.417 -7.143,-12.036 -3.924,-6.615 -7.131,-12.044 -7.131,-12.051 0,-0.012 5.329,-0.019 11.842,-0.012 l 11.849,0.006 0.182,0.05 c 0.108,0.026 0.259,0.076 0.347,0.101 0.088,0.032 0.265,0.107 0.391,0.177 0.125,0.063 0.308,0.17 0.402,0.239 0.095,0.076 0.265,0.22 0.372,0.328 0.107,0.107 0.258,0.296 0.34,0.409 0.076,0.12 0.196,0.321 0.259,0.46 0.063,0.132 0.151,0.371 0.189,0.523 0.068,0.245 0.075,0.34 0.075,0.743 0.006,0.378 -0.007,0.504 -0.056,0.705 -0.032,0.133 -0.108,0.347 -0.158,0.473 -0.057,0.132 -2.721,4.654 -5.921,10.06 -3.2,5.403 -5.833,9.825 -5.839,9.825"
             style="fill:#ffffff;fill-opacity:1;fill-rule:nonzero;stroke:none"
             id="path304" />
        </g>
      </g>
    </g>
  </g>
</svg>
