<?xml version="1.0" encoding="UTF-8" standalone="no"?>
<!-- Created with Inkscape (http://www.inkscape.org/) -->

<svg
   version="1.1"
   id="svg1431"
   width="170.61884"
   height="250"
   viewBox="0 0 170.61883 250"
   sodipodi:docname="215.eps"
   inkscape:version="0.0"
   xmlns:inkscape="http://www.inkscape.org/namespaces/inkscape"
   xmlns:sodipodi="http://sodipodi.sourceforge.net/DTD/sodipodi-0.dtd"
   xmlns="http://www.w3.org/2000/svg"
   xmlns:svg="http://www.w3.org/2000/svg">
  <defs
     id="defs1435" />
  <sodipodi:namedview
     id="namedview1433"
     pagecolor="#505050"
     bordercolor="#ffffff"
     borderopacity="1"
     inkscape:showpageshadow="0"
     inkscape:pageopacity="0"
     inkscape:pagecheckerboard="1"
     inkscape:deskcolor="#505050"
     showgrid="false"
     inkscape:zoom="0.69369071"
     inkscape:cx="511.75545"
     inkscape:cy="335.16378"
     inkscape:window-width="1360"
     inkscape:window-height="737"
     inkscape:window-x="0"
     inkscape:window-y="0"
     inkscape:window-maximized="1"
     inkscape:current-layer="g1441" />
  <g
     id="g1439"
     inkscape:groupmode="layer"
     inkscape:label="Page 1"
     transform="matrix(1.3333333,0,0,-1.3333333,-54.555237,460.53868)">
    <g
       id="g1441"
       transform="scale(0.1)">
      <g
         id="g5542"
         style="fill:#a8baa9;fill-opacity:1"
         transform="matrix(4.7101974,0,0,4.7101974,-1518.0801,-12815.17)">
        <path
           d="m 677.328,3207.54 c -4.355,6.04 -12.398,10.01 -20.043,10.59 4.406,7.3 3.832,17.81 -1.168,24.76 -4.144,5.75 -11.605,9.57 -18.887,10.42 3.797,7.47 2.536,18.18 -2.328,24.93 -4.324,6.01 -13.695,10.43 -20.914,10.43 -0.617,0 -1.215,-0.03 -1.797,-0.1 l 44.68,44.68 c 6.18,6.18 8.504,15.78 4.477,23.54 -3.868,7.47 -10.946,11.2 -18.024,11.2 -5.117,0 -10.234,-1.95 -14.14,-5.86 L 516.047,3249 c -7.813,7.8 -7.813,20.47 0,28.28 l 12.769,12.77 c 2.711,2.71 2.711,7.1 0,9.81 l -4.261,4.27 c -5.278,5.27 -12.196,7.91 -19.114,7.91 -6.918,0 -13.836,-2.64 -19.117,-7.91 l -34.91,-34.92 c -6.109,-6.1 -9.289,-14.55 -8.719,-23.18 l 2.348,-35.72 c 0.48,-7.26 3.578,-14.1 8.723,-19.24 l 78.242,-78.25 c 5.629,-5.62 13.258,-8.78 21.215,-8.78 h 31.715 c 7.957,0 15.585,3.16 21.214,8.78 l 68.235,68.24 c 7.047,7.05 8.761,18.39 2.941,26.48"
           style="fill:#a8baa9;fill-opacity:1;fill-rule:nonzero;stroke:none"
           id="path1619" />
        <path
           d="m 431.84,3177.64 c -1.953,1.95 -5.117,1.95 -7.07,0 l -14.141,-14.14 c -1.953,-1.96 -1.953,-5.12 0,-7.07 l 98.992,-99 c 1.953,-1.95 5.117,-1.95 7.07,0 l 14.145,14.14 c 1.953,1.95 1.953,5.12 0,7.07 z m 193.461,276.4 -75,-75 -35,35 -30,-30 65,-65 105,105 -30,30"
           style="fill:#a8baa9;fill-opacity:1;fill-rule:nonzero;stroke:none"
           id="path1621" />
      </g>
    </g>
  </g>
</svg>
