<?xml version="1.0" encoding="UTF-8" standalone="no"?>
<!-- Created with Inkscape (http://www.inkscape.org/) -->

<svg
   version="1.1"
   id="svg1431"
   width="201.61671"
   height="250"
   viewBox="0 0 201.61671 250"
   sodipodi:docname="215.eps"
   inkscape:version="0.0"
   xmlns:inkscape="http://www.inkscape.org/namespaces/inkscape"
   xmlns:sodipodi="http://sodipodi.sourceforge.net/DTD/sodipodi-0.dtd"
   xmlns="http://www.w3.org/2000/svg"
   xmlns:svg="http://www.w3.org/2000/svg">
  <defs
     id="defs1435" />
  <sodipodi:namedview
     id="namedview1433"
     pagecolor="#505050"
     bordercolor="#ffffff"
     borderopacity="1"
     inkscape:showpageshadow="0"
     inkscape:pageopacity="0"
     inkscape:pagecheckerboard="1"
     inkscape:deskcolor="#505050"
     showgrid="false"
     inkscape:zoom="0.69369071"
     inkscape:cx="511.75545"
     inkscape:cy="335.16378"
     inkscape:window-width="1360"
     inkscape:window-height="737"
     inkscape:window-x="0"
     inkscape:window-y="0"
     inkscape:window-maximized="1"
     inkscape:current-layer="g1441" />
  <g
     id="g1439"
     inkscape:groupmode="layer"
     inkscape:label="Page 1"
     transform="matrix(1.3333333,0,0,-1.3333333,-232.89519,188.16933)">
    <g
       id="g1441"
       transform="scale(0.1)">
      <g
         id="g3574"
         style="fill:#a8baa9;fill-opacity:1"
         transform="matrix(4.7765834,0,0,4.7765834,-6596.6109,-5329.7789)">
        <path
           d="m 1933.16,1224.09 c -0.14,-0.01 -0.28,-0.01 -0.43,-0.02 -7.98,-0.23 -14.32,-6.79 -14.32,-14.77 v -175.57 c 0,-8.28 6.72,-15 15,-15 8.28,0 15,6.72 15,15 v 175.58 c 0,8.35 -6.91,15.03 -15.25,14.78 z m 100.43,131.42 c -2.24,2.61 -2.24,6.45 0,9.06 l 28.01,32.68 c 3.86,4.51 0.66,11.48 -5.28,11.48 h -130.96 c -3.84,0 -6.95,-3.11 -6.95,-6.95 v -83.48 c 0,-3.84 3.11,-6.95 6.95,-6.95 h 130.96 c 5.94,0 9.14,6.97 5.28,11.48 l -28.01,32.68"
           style="fill:#a8baa9;fill-opacity:1;fill-rule:nonzero;stroke:none"
           id="path1539" />
        <path
           d="m 1819.74,1316.98 c 26.03,0 47.14,21.11 47.14,47.15 0,26.03 -21.11,47.14 -47.14,47.14 -26.04,0 -47.15,-21.11 -47.15,-47.14 0,-26.04 21.11,-47.15 47.15,-47.15 z m 118.67,-28.25 h -153.38 c -9.64,0 -17.9,-6.87 -19.66,-16.34 l -18.32,-98.37 c -0.97,-5.22 0.18,-10.62 3.19,-15 l 25.14,-36.51 c 1.98,-2.88 3.17,-6.24 3.46,-9.74 l 6.09,-75.64 c 0.84,-10.39 9.51,-18.4 19.93,-18.4 h 27.09 c 10.43,0 19.1,8.01 19.94,18.4 l 6.22,77.23 c 0.19,2.48 0.85,4.89 1.94,7.12 l 6.36,13.12 c 1.31,2.72 2,5.7 2,8.72 v 105.41 h 70 c 11.04,0 20,8.96 20,20 0,11.05 -8.96,20 -20,20"
           style="fill:#a8baa9;fill-opacity:1;fill-rule:nonzero;stroke:none"
           id="path1541" />
      </g>
    </g>
  </g>
</svg>
