<?xml version="1.0" encoding="UTF-8" standalone="no"?>
<!-- Created with Inkscape (http://www.inkscape.org/) -->

<svg
   version="1.1"
   id="svg1431"
   width="240.9964"
   height="250.00003"
   viewBox="0 0 240.9964 250.00003"
   sodipodi:docname="215.eps"
   inkscape:version="0.0"
   xmlns:inkscape="http://www.inkscape.org/namespaces/inkscape"
   xmlns:sodipodi="http://sodipodi.sourceforge.net/DTD/sodipodi-0.dtd"
   xmlns="http://www.w3.org/2000/svg"
   xmlns:svg="http://www.w3.org/2000/svg">
  <defs
     id="defs1435" />
  <sodipodi:namedview
     id="namedview1433"
     pagecolor="#505050"
     bordercolor="#ffffff"
     borderopacity="1"
     inkscape:showpageshadow="0"
     inkscape:pageopacity="0"
     inkscape:pagecheckerboard="1"
     inkscape:deskcolor="#505050"
     showgrid="false"
     inkscape:zoom="0.69369071"
     inkscape:cx="511.75545"
     inkscape:cy="335.16378"
     inkscape:window-width="1360"
     inkscape:window-height="737"
     inkscape:window-x="0"
     inkscape:window-y="0"
     inkscape:window-maximized="1"
     inkscape:current-layer="g1441" />
  <g
     id="g1439"
     inkscape:groupmode="layer"
     inkscape:label="Page 1"
     transform="matrix(1.3333333,0,0,-1.3333333,-411.82819,186.38359)">
    <g
       id="g1441"
       transform="scale(0.1)">
      <g
         id="g5283"
         style="fill:#a8baa9;fill-opacity:1"
         transform="matrix(5.1264207,0,0,5.1264207,-12745.323,-5768.2279)">
        <path
           d="m 3435.89,1179.15 v 0 c -8.55,10.81 -24.24,12.69 -35.09,4.18 l -70.78,-55.46 c -3.52,-2.75 -7.86,-4.25 -12.32,-4.26 l -50.72,-0.05 c -6.9,-0.01 -12.5,5.58 -12.51,12.49 -0.01,6.9 5.58,12.5 12.49,12.51 l 42.5,0.05 c 13.81,0.01 24.99,11.21 24.97,25.02 -0.01,13.81 -11.21,24.99 -25.02,24.98 l -97.31,-0.1 -6.57,-0.01 c -13.43,-0.01 -26.47,-4.52 -37.03,-12.82 l -34.73,-27.26 c -2.17,-1.71 -2.54,-4.86 -0.82,-7.03 l 67.44,-85.3 c 0.93,-1.19 2.36,-1.89 3.87,-1.9 l 81.59,-0.69 22.55,-0.18 c 13.69,-0.12 26.99,4.44 37.73,12.93 l 85.65,67.72 c 10.85,8.58 12.69,24.33 4.11,35.18"
           style="fill:#a8baa9;fill-opacity:1;fill-rule:nonzero;stroke:none"
           id="path1531" />
        <path
           d="m 3113.32,1135.89 c -1.71,2.17 -4.86,2.54 -7.02,0.83 l -15.69,-12.41 c -2.17,-1.71 -2.53,-4.85 -0.82,-7.02 l 65.84,-83.27 c 1.71,-2.16 4.85,-2.53 7.02,-0.82 l 15.69,12.41 c 2.16,1.71 2.53,4.85 0.82,7.02 z m 177.91,261.48 c -32.41,-3.66 -63.59,-34.68 -67.41,-67.08 -2.89,-24.45 5.73,-46.91 21.13,-62.79 8.9,-9.18 13.82,-21.49 13.82,-34.28 v -0.01 c 0,-6.53 5.3,-11.83 11.84,-11.83 h 59.17 c 6.53,0 11.83,5.3 11.83,11.83 0,12.66 4.7,24.98 13.56,34.02 13.56,13.85 21.94,32.8 21.94,53.73 0,45.43 -39.38,81.66 -85.88,76.41 z m 45.62,-87.95 -51.99,-47.47 c -2.73,-2.49 -6.97,0.27 -5.8,3.76 l 11.08,33.23 c 0.77,2.31 -0.96,4.7 -3.39,4.7 h -20.8 c -3.26,0 -4.82,4 -2.41,6.2 l 51.99,47.47 c 2.72,2.48 6.95,-0.27 5.79,-3.76 l -11.07,-33.23 c -0.77,-2.31 0.95,-4.7 3.38,-4.7 h 20.81 c 3.26,0 4.81,-4.01 2.41,-6.2"
           style="fill:#a8baa9;fill-opacity:1;fill-rule:nonzero;stroke:none"
           id="path1533" />
      </g>
    </g>
  </g>
</svg>
