<?xml version="1.0" encoding="UTF-8" standalone="no"?>
<!-- Created with Inkscape (http://www.inkscape.org/) -->

<svg
   version="1.1"
   id="svg1431"
   width="367.34473"
   height="250"
   viewBox="0 0 367.34472 250"
   sodipodi:docname="215.eps"
   inkscape:version="0.0"
   xmlns:inkscape="http://www.inkscape.org/namespaces/inkscape"
   xmlns:sodipodi="http://sodipodi.sourceforge.net/DTD/sodipodi-0.dtd"
   xmlns="http://www.w3.org/2000/svg"
   xmlns:svg="http://www.w3.org/2000/svg">
  <defs
     id="defs1435" />
  <sodipodi:namedview
     id="namedview1433"
     pagecolor="#505050"
     bordercolor="#ffffff"
     borderopacity="1"
     inkscape:showpageshadow="0"
     inkscape:pageopacity="0"
     inkscape:pagecheckerboard="1"
     inkscape:deskcolor="#505050"
     showgrid="false"
     inkscape:zoom="0.69369071"
     inkscape:cx="511.75545"
     inkscape:cy="335.16378"
     inkscape:window-width="1360"
     inkscape:window-height="737"
     inkscape:window-x="0"
     inkscape:window-y="0"
     inkscape:window-maximized="1"
     inkscape:current-layer="g1441" />
  <g
     id="g1439"
     inkscape:groupmode="layer"
     inkscape:label="Page 1"
     transform="matrix(1.3333333,0,0,-1.3333333,-495.74134,454.59267)">
    <g
       id="g1441"
       transform="scale(0.1)">
      <g
         id="g7783"
         style="fill:#a8baa9;fill-opacity:1"
         transform="matrix(6.0700247,0,0,6.0700247,-18850.655,-17285.97)">
        <path
           d="m 4170.58,3319.33 -83.42,88.54 c -1.89,2.01 -5.05,2.11 -7.06,0.22 l -35.05,-33.03 c -2.01,-1.89 -2.1,-5.05 -0.21,-7.06 l 83.41,-88.55 c 1.9,-2.01 5.06,-2.1 7.07,-0.21 l 35.05,33.02 c 2.01,1.9 2.11,5.06 0.21,7.07 z m -30.47,-10.06 c -4.38,-4.13 -11.28,-3.92 -15.41,0.46 -4.13,4.38 -3.93,11.29 0.46,15.41 4.38,4.13 11.28,3.93 15.41,-0.46 4.13,-4.38 3.92,-11.28 -0.46,-15.41 z m -336.13,86.49 c -2.18,1.69 -5.32,1.29 -7.02,-0.88 l -77.85,-100.2 c -1.69,-2.18 -1.3,-5.32 0.88,-7.02 l 38.19,-29.66 c 2.18,-1.7 5.32,-1.3 7.01,0.88 l 77.85,100.19 c 1.69,2.18 1.3,5.32 -0.88,7.02 z m -36.64,-104.4 c -3.71,-4.77 -10.58,-5.63 -15.36,-1.92 -4.77,3.7 -5.63,10.58 -1.92,15.35 3.71,4.77 10.58,5.64 15.35,1.93 4.77,-3.71 5.64,-10.58 1.93,-15.36"
           style="fill:#a8baa9;fill-opacity:1;fill-rule:nonzero;stroke:none"
           id="path1599" />
        <path
           d="m 4056.98,3194.27 -85.55,66.79 -15.6,-14.27 c -22.04,-19.79 -41.88,-25.11 -56.87,-25.11 -3.83,0 -7.36,0.35 -10.51,0.89 -20.59,3.56 -34.54,16.74 -40.84,28.05 -7.72,12.27 -5.5,27.76 5.48,37.84 l 61.45,55.87 c -7.25,5.55 -15.77,8.29 -24.27,8.29 -11.95,0 -23.77,-5.33 -31.66,-15.53 l -60,-77.54 c -4.9,-6.27 -7.1,-14.23 -6.13,-22.12 l 3.87,-31.48 c 0.97,-7.9 5.03,-15.09 11.31,-19.99 l 105.16,-81.99 c 2.94,-2.29 6.44,-3.42 9.92,-3.42 4.39,0 8.74,1.79 11.91,5.25 l 4.73,5.16 c 6.21,6.78 5.51,17.36 -1.53,23.27 l 17.65,-14.8 c 3.01,-2.52 6.69,-3.77 10.37,-3.77 4.05,0 8.09,1.52 11.2,4.52 l 5.44,5.24 c 6.92,6.67 6.51,17.87 -0.87,24.02 l 13.06,-10.88 c 3,-2.51 6.67,-3.74 10.33,-3.74 4.1,0 8.17,1.54 11.3,4.61 l 4.8,4.7 c 6.73,6.59 6.4,17.53 -0.72,23.71 l 8.62,-7.45 c 3.06,-2.64 6.81,-3.93 10.55,-3.93 4.62,0 9.21,1.97 12.4,5.79 l 7.47,8.95 c 5.85,7.01 4.73,17.46 -2.47,23.07 z m 41.81,79.96 -72.24,73.69 c -3.14,3.19 -7.25,5.24 -11.68,5.83 l -36.98,4.84 c -5.82,0.76 -11.67,-1.07 -16.01,-5 l -8.71,-7.92 -83.22,-75.67 c -0.93,-0.86 -3,-3.27 -1.12,-6.17 l 0.52,-0.86 c 3.24,-5.97 11.29,-13.68 23.36,-15.76 14.36,-2.45 30.39,3.78 46.33,18.1 l 31.11,28.47 97.89,-76.42 30.5,28.6 c 7.87,7.74 7.98,20.39 0.25,28.27"
           style="fill:#a8baa9;fill-opacity:1;fill-rule:nonzero;stroke:none"
           id="path1601" />
      </g>
    </g>
  </g>
</svg>
