<?xml version="1.0" encoding="UTF-8" standalone="no"?>
<!-- Created with Inkscape (http://www.inkscape.org/) -->

<svg
   version="1.1"
   id="svg1431"
   width="211.18002"
   height="249.99997"
   viewBox="0 0 211.18002 249.99997"
   sodipodi:docname="215.eps"
   inkscape:version="0.0"
   xmlns:inkscape="http://www.inkscape.org/namespaces/inkscape"
   xmlns:sodipodi="http://sodipodi.sourceforge.net/DTD/sodipodi-0.dtd"
   xmlns="http://www.w3.org/2000/svg"
   xmlns:svg="http://www.w3.org/2000/svg">
  <defs
     id="defs1435" />
  <sodipodi:namedview
     id="namedview1433"
     pagecolor="#505050"
     bordercolor="#ffffff"
     borderopacity="1"
     inkscape:showpageshadow="0"
     inkscape:pageopacity="0"
     inkscape:pagecheckerboard="1"
     inkscape:deskcolor="#505050"
     showgrid="false"
     inkscape:zoom="0.69369071"
     inkscape:cx="511.75545"
     inkscape:cy="335.16378"
     inkscape:window-width="1360"
     inkscape:window-height="737"
     inkscape:window-x="0"
     inkscape:window-y="0"
     inkscape:window-maximized="1"
     inkscape:current-layer="g1441" />
  <g
     id="g1439"
     inkscape:groupmode="layer"
     inkscape:label="Page 1"
     transform="matrix(1.3333333,0,0,-1.3333333,-413.37064,97.333846)">
    <g
       id="g1441"
       transform="scale(0.1)">
      <g
         id="g7518"
         style="fill:#a8baa9;fill-opacity:1"
         transform="matrix(4.8076431,0,0,4.8076431,-11804.76,-2779.5947)">
        <path
           d="m 3319.26,566.672 c 0,-31.727 -24.97,-57.539 -55.65,-57.543 -30.69,0 -55.65,25.816 -55.65,57.543 0,31.73 24.96,57.539 55.65,57.539 2.53,0 5.02,-0.238 7.46,-0.578 l 31.86,31.855 c -12.01,5.551 -25.3,8.723 -39.32,8.723 -52.74,0 -95.65,-43.754 -95.65,-97.539 0,-53.781 42.91,-97.543 95.65,-97.543 52.74,0.004 95.65,43.766 95.65,97.543 0,13.633 -2.78,26.609 -7.75,38.402 l -32.54,-32.535 c 0.19,-1.93 0.29,-3.887 0.29,-5.867 z m 44.32,-128.875 c 38.47,29.91 63.36,76.492 63.37,128.883 0,17.832 -2.98,34.961 -8.29,51.043 l -8.88,-8.883 c -6.51,-6.508 -15.17,-10.09 -24.37,-10.09 -0.99,0 -1.95,0.184 -2.92,0.266 2.82,-10.325 4.46,-21.133 4.46,-32.336 -0.01,-68.008 -55.34,-123.336 -123.34,-123.34 -68.01,0 -123.33,55.324 -123.33,123.332 0,68.004 55.32,123.332 123.33,123.332 12.95,-0.004 25.43,-2.035 37.17,-5.754 0.2,8.707 3.62,17.211 10.01,23.59 l 11.19,11.191 c -18.16,6.981 -37.79,10.969 -58.37,10.973 -90.06,0 -163.33,-73.274 -163.33,-163.332 0,-55.883 28.24,-105.262 71.17,-134.723 l -26.89,-71.676 c -2.91,-7.761 1.02,-16.406 8.78,-19.312 1.73,-0.656 3.52,-0.961 5.27,-0.961 6.07,0 11.78,3.715 14.04,9.734 l 25.31,67.489 c 17.2,-7.59 35.96,-12.176 55.65,-13.379 v -48.84 c 0,-8.285 6.71,-15 15,-15 8.28,0 15,6.715 15,15 v 49.687 c 19.28,2.372 37.5,8.114 54.11,16.622 l 26.84,-71.579 c 2.26,-6.019 7.97,-9.734 14.05,-9.734 1.75,0 3.53,0.305 5.26,0.961 7.76,2.906 11.69,11.551 8.78,19.312 l -29.07,77.524"
           style="fill:#a8baa9;fill-opacity:1;fill-rule:nonzero;stroke:none"
           id="path1507" />
        <path
           d="m 3423.65,676.898 -28.44,10.938 c -2.5,0.961 -4.47,2.937 -5.43,5.437 l -10.94,28.442 c -1.5,3.898 -5.15,6.07 -8.86,6.07 -2.38,0 -4.78,-0.887 -6.67,-2.777 l -34.85,-34.844 c -2.64,-2.648 -3.48,-6.601 -2.14,-10.094 l 9.17,-23.843 -59.85,-59.848 c -3.72,1.512 -7.77,2.383 -12.03,2.383 -17.71,0 -32.07,-14.367 -32.07,-32.094 0,-17.723 14.36,-32.09 32.07,-32.09 17.71,0 32.07,14.367 32.07,32.09 0,4.262 -0.87,8.309 -2.38,12.023 l 57.64,57.637 31.07,-11.949 c 1.1,-0.422 2.26,-0.629 3.4,-0.629 2.46,0 4.88,0.965 6.69,2.773 l 34.85,34.844 c 4.84,4.844 3.1,13.071 -3.3,15.531"
           style="fill:#a8baa9;fill-opacity:1;fill-rule:nonzero;stroke:none"
           id="path1509" />
      </g>
    </g>
  </g>
</svg>
