<?xml version="1.0" encoding="UTF-8" standalone="no"?>
<!-- Created with Inkscape (http://www.inkscape.org/) -->

<svg
   version="1.1"
   id="svg1431"
   width="286.94186"
   height="250"
   viewBox="0 0 286.94186 250"
   sodipodi:docname="215.eps"
   inkscape:version="0.0"
   xmlns:inkscape="http://www.inkscape.org/namespaces/inkscape"
   xmlns:sodipodi="http://sodipodi.sourceforge.net/DTD/sodipodi-0.dtd"
   xmlns="http://www.w3.org/2000/svg"
   xmlns:svg="http://www.w3.org/2000/svg">
  <defs
     id="defs1435" />
  <sodipodi:namedview
     id="namedview1433"
     pagecolor="#505050"
     bordercolor="#ffffff"
     borderopacity="1"
     inkscape:showpageshadow="0"
     inkscape:pageopacity="0"
     inkscape:pagecheckerboard="1"
     inkscape:deskcolor="#505050"
     showgrid="false"
     inkscape:zoom="0.69369071"
     inkscape:cx="511.75545"
     inkscape:cy="335.16378"
     inkscape:window-width="1360"
     inkscape:window-height="737"
     inkscape:window-x="0"
     inkscape:window-y="0"
     inkscape:window-maximized="1"
     inkscape:current-layer="g1441" />
  <g
     id="g1439"
     inkscape:groupmode="layer"
     inkscape:label="Page 1"
     transform="matrix(1.3333333,0,0,-1.3333333,-44.882347,186.20729)">
    <g
       id="g1441"
       transform="scale(0.1)">
      <g
         id="g7255"
         transform="matrix(5.1637341,0,0,5.1637341,-1401.5862,-5814.8823)"
         style="fill:#a8baa9;fill-opacity:1">
        <path
           d="m 648.828,1184.2 -70.89,-55.33 c -3.52,-2.75 -7.86,-4.24 -12.325,-4.23 l -50.715,0.04 c -6.906,0.01 -12.496,5.61 -12.492,12.52 0.008,6.9 5.61,12.49 12.516,12.48 l 42.5,-0.04 c 13.808,-0.01 25.008,11.18 25.019,24.98 0.016,13.81 -11.168,25.01 -24.976,25.02 l -97.305,0.09 v 0 l -6.574,0.01 c -13.43,0.01 -26.477,-4.48 -37.055,-12.75 l -34.773,-27.2 c -2.18,-1.7 -2.559,-4.85 -0.848,-7.03 l 67.278,-85.42 c 0.937,-1.19 2.363,-1.89 3.878,-1.91 l 81.582,-0.84 22.555,-0.23 c 13.68,-0.15 26.996,4.39 37.742,12.86 l 85.785,67.56 c 10.868,8.56 12.735,24.3 4.18,35.17 -8.531,10.83 -24.215,12.73 -35.082,4.25 z m 60.266,93.04 -67.281,85.42 c -0.938,1.19 -2.364,1.89 -3.879,1.91 l -81.582,0.84 -22.555,0.23 c -13.68,0.15 -26.996,-4.39 -37.742,-12.85 l -85.782,-67.57 c -10.867,-8.56 -12.738,-24.3 -4.179,-35.17 8.531,-10.83 24.211,-12.73 35.082,-4.25 l 70.887,55.33 c 3.523,2.75 7.859,4.24 12.324,4.23 l 50.715,-0.04 c 6.906,-0.01 12.496,-5.61 12.492,-12.51 -0.008,-6.91 -5.61,-12.5 -12.512,-12.49 l -42.5,0.04 c -13.809,0.01 -25.012,-11.17 -25.023,-24.98 -0.012,-13.81 11.171,-25.01 24.976,-25.02 l 69.789,-0.07 34.094,-0.03 c 13.43,-0.01 26.473,4.48 37.055,12.75 l 34.769,27.2 c 2.18,1.7 2.563,4.85 0.852,7.03"
           style="fill:#a8baa9;fill-opacity:1;fill-rule:nonzero;stroke:none"
           id="path1547" />
        <path
           d="m 361.258,1137.31 c -1.707,2.17 -4.852,2.54 -7.02,0.83 l -15.711,-12.37 c -2.172,-1.71 -2.547,-4.85 -0.836,-7.02 l 65.68,-83.4 c 1.707,-2.17 4.852,-2.54 7.02,-0.83 l 15.711,12.37 c 2.171,1.71 2.543,4.86 0.836,7.02 z m 391.051,173.94 -65.676,83.4 c -1.707,2.17 -4.852,2.54 -7.024,0.83 l -15.711,-12.37 c -2.168,-1.71 -2.543,-4.86 -0.832,-7.02 l 65.676,-83.4 c 1.707,-2.17 4.852,-2.54 7.024,-0.83 l 15.711,12.37 c 2.168,1.71 2.543,4.86 0.832,7.02"
           style="fill:#a8baa9;fill-opacity:1;fill-rule:nonzero;stroke:none"
           id="path1549" />
      </g>
    </g>
  </g>
</svg>
