<?xml version="1.0" encoding="UTF-8" standalone="no"?>
<!-- Created with Inkscape (http://www.inkscape.org/) -->

<svg
   version="1.1"
   id="svg1431"
   width="276.94492"
   height="250"
   viewBox="0 0 276.94491 250"
   sodipodi:docname="215.eps"
   inkscape:version="0.0"
   xmlns:inkscape="http://www.inkscape.org/namespaces/inkscape"
   xmlns:sodipodi="http://sodipodi.sourceforge.net/DTD/sodipodi-0.dtd"
   xmlns="http://www.w3.org/2000/svg"
   xmlns:svg="http://www.w3.org/2000/svg">
  <defs
     id="defs1435" />
  <sodipodi:namedview
     id="namedview1433"
     pagecolor="#505050"
     bordercolor="#ffffff"
     borderopacity="1"
     inkscape:showpageshadow="0"
     inkscape:pageopacity="0"
     inkscape:pagecheckerboard="1"
     inkscape:deskcolor="#505050"
     showgrid="false"
     inkscape:zoom="0.69369071"
     inkscape:cx="511.75545"
     inkscape:cy="335.16378"
     inkscape:window-width="1360"
     inkscape:window-height="737"
     inkscape:window-x="0"
     inkscape:window-y="0"
     inkscape:window-maximized="1"
     inkscape:current-layer="g1441" />
  <g
     id="g1439"
     inkscape:groupmode="layer"
     inkscape:label="Page 1"
     transform="matrix(1.3333333,0,0,-1.3333333,-136.73332,367.34523)">
    <g
       id="g1441"
       transform="scale(0.1)">
      <g
         id="g1772"
         style="fill:#a8baa9;fill-opacity:1"
         transform="matrix(5.2057306,0,0,5.2057306,-4312.9768,-11587.167)"
         inkscape:export-filename="../584e8f0a/professionalism.svg"
         inkscape:export-xdpi="96"
         inkscape:export-ydpi="96">
        <path
           d="m 1133.06,2530.36 c -0.67,2.05 -2.59,3.44 -4.75,3.44 h -24.48 c -43.26,0 -78.33,-35.07 -78.33,-78.33 v -34.76 c 0,-6.44 5.21,-11.66 11.65,-11.66 h 128.57 c 3.4,0 5.81,3.33 4.75,6.56 z m 66.46,224.73 c -53.06,0 -96.07,-43.01 -96.07,-96.07 0,-53.06 43.01,-96.08 96.07,-96.08 53.06,0 96.08,43.02 96.08,96.08 0,53.06 -43.02,96.07 -96.08,96.07"
           style="fill:#a8baa9;fill-opacity:1;fill-rule:nonzero;stroke:none"
           id="path1591" />
        <path
           d="m 1199.52,2531.09 c -8.28,0 -15,-6.72 -15,-15 v -80 c 0,-8.29 6.72,-15 15,-15 8.28,0 15,6.71 15,15 v 80 c 0,8.28 -6.72,15 -15,15 z m 200.55,-13.73 c -4.28,10.32 4.75,29.82 -3.02,37.59 -7.78,7.77 -27.28,-1.26 -37.59,3.02 -9.95,4.12 -17.26,24.44 -28.71,24.44 -11.44,0 -18.75,-20.32 -28.7,-24.44 -10.32,-4.27 -29.82,4.75 -37.59,-3.02 -7.77,-7.77 1.26,-27.27 -3.02,-37.59 -4.12,-9.95 -24.44,-17.26 -24.44,-28.7 0,-11.44 20.32,-18.76 24.44,-28.71 4.28,-10.31 -4.75,-29.81 3.02,-37.58 7.77,-7.78 27.27,1.25 37.59,-3.03 9.95,-4.12 17.26,-24.43 28.7,-24.43 11.45,0 18.76,20.31 28.71,24.43 10.31,4.28 29.81,-4.75 37.59,3.02 7.77,7.78 -1.26,27.28 3.02,37.59 4.12,9.95 24.43,17.27 24.43,28.71 0,11.44 -20.31,18.75 -24.43,28.7 z m -69.34,-83.73 c -8.3,0 -15.02,6.73 -15.02,15.03 0,8.3 6.72,15.02 15.02,15.02 8.3,0 15.02,-6.72 15.02,-15.02 0,-8.3 -6.72,-15.03 -15.02,-15.03 z m 15.02,62.53 c 0,-8.29 -6.71,-15 -15,-15 -8.28,0 -15,6.71 -15,15 v 35.95 c 0,8.28 6.72,15 15,15 8.29,0 15,-6.72 15,-15 v -35.95"
           style="fill:#a8baa9;fill-opacity:1;fill-rule:nonzero;stroke:none"
           id="path1593" />
      </g>
    </g>
  </g>
</svg>
